<svg width="162" height="50" fill="none" xmlns="http://www.w3.org/2000/svg"><g clip-path="url(#clip0)"><path d="M156.236 49.297H5.675C2.546 49.297 0 46.69 0 43.499V6.086C0 2.894 2.546.296 5.675.296h150.561c3.128 0 5.764 2.598 5.764 5.79V43.5c0 3.191-2.636 5.798-5.764 5.798z" fill="#D8DBE6"/><path d="M160.838 43.5c0 2.592-2.057 4.692-4.601 4.692H5.675c-2.543 0-4.607-2.1-4.607-4.692V6.085c0-2.59 2.064-4.698 4.607-4.698h150.561c2.545 0 4.601 2.107 4.601 4.698l.001 37.415z" fill="#000"/><path d="M36.153 24.532c-.034-3.948 3.167-5.869 3.314-5.958-1.814-2.699-4.624-3.068-5.612-3.097-2.36-.254-4.65 1.442-5.852 1.442-1.226 0-3.078-1.418-5.074-1.376-2.568.04-4.97 1.558-6.288 3.915-2.719 4.806-.69 11.868 1.914 15.753 1.304 1.902 2.826 4.026 4.82 3.951 1.95-.082 2.678-1.269 5.031-1.269 2.332 0 3.016 1.27 5.049 1.222 2.092-.035 3.41-1.911 4.668-3.831 1.506-2.18 2.11-4.328 2.134-4.438-.049-.017-4.064-1.582-4.104-6.314zm-3.84-11.61c1.05-1.34 1.767-3.16 1.568-5.01-1.518.07-3.417 1.072-4.51 2.382-.967 1.154-1.831 3.045-1.608 4.824 1.705.13 3.456-.878 4.55-2.196zM64.374 38.89H61.65l-1.493-4.79h-5.189l-1.422 4.79h-2.653l5.14-16.303h3.176l5.166 16.302zm-4.668-6.798l-1.35-4.257c-.143-.435-.41-1.46-.805-3.071h-.048c-.157.693-.41 1.717-.758 3.07l-1.326 4.258h4.287zm17.889.775c0 2-.53 3.58-1.588 4.74-.948 1.033-2.125 1.548-3.53 1.548-1.517 0-2.607-.556-3.27-1.668h-.048v6.192H66.6V31.004c0-1.257-.032-2.547-.095-3.87h2.25l.143 1.864h.048c.853-1.404 2.148-2.105 3.886-2.105 1.358 0 2.492.548 3.4 1.644.909 1.098 1.363 2.54 1.363 4.33zm-2.607.096c0-1.144-.252-2.088-.758-2.83-.553-.774-1.296-1.161-2.227-1.161-.632 0-1.205.215-1.718.64-.513.43-.85.99-1.006 1.683-.08.323-.12.587-.12.796v1.96c0 .855.258 1.576.771 2.166.514.589 1.181.883 2.002.883.963 0 1.713-.38 2.25-1.137.537-.758.806-1.758.806-3zm15.851-.096c0 2-.53 3.58-1.589 4.74-.947 1.033-2.124 1.548-3.529 1.548-1.517 0-2.606-.556-3.269-1.668h-.048v6.192h-2.558V31.004c0-1.257-.033-2.547-.095-3.87h2.25l.143 1.864h.048c.852-1.404 2.147-2.105 3.885-2.105 1.358 0 2.492.548 3.401 1.644.906 1.098 1.361 2.54 1.361 4.33zm-2.606.096c0-1.144-.254-2.088-.76-2.83-.553-.774-1.294-1.161-2.226-1.161-.632 0-1.205.215-1.718.64-.514.43-.849.99-1.006 1.683a3.554 3.554 0 00-.119.796v1.96c0 .855.257 1.576.768 2.166.514.587 1.181.883 2.004.883.964 0 1.714-.38 2.25-1.137.538-.758.807-1.758.807-3zm17.414 1.355c0 1.386-.472 2.515-1.418 3.386-1.041.951-2.489 1.427-4.35 1.427-1.719 0-3.097-.339-4.14-1.016l.593-2.177a6.906 6.906 0 003.699 1.041c.964 0 1.714-.222 2.252-.666.537-.443.804-1.039.804-1.781 0-.661-.22-1.219-.663-1.67-.441-.453-1.176-.873-2.203-1.261-2.797-1.065-4.193-2.624-4.193-4.675 0-1.34.49-2.439 1.47-3.294.977-.856 2.28-1.284 3.909-1.284 1.454 0 2.661.259 3.624.774l-.639 2.13c-.9-.5-1.918-.75-3.057-.75-.9 0-1.603.226-2.107.677-.426.403-.64.894-.64 1.476 0 .645.244 1.177.734 1.596.426.387 1.2.806 2.323 1.258 1.374.565 2.383 1.226 3.032 1.982.647.755.97 1.7.97 2.827zm8.459-5.224h-2.82v5.707c0 1.452.496 2.177 1.492 2.177.458 0 .837-.04 1.137-.121l.071 1.983c-.504.192-1.168.29-1.99.29-1.01 0-1.8-.316-2.37-.944-.568-.63-.853-1.686-.853-3.17v-5.924h-1.68v-1.96h1.68v-2.153l2.513-.774v2.927h2.82v1.962zm12.723 3.821c0 1.807-.506 3.29-1.517 4.45-1.059 1.195-2.466 1.79-4.219 1.79-1.69 0-3.035-.572-4.038-1.716-1.003-1.144-1.505-2.589-1.505-4.33 0-1.82.516-3.313 1.552-4.473 1.033-1.161 2.427-1.742 4.181-1.742 1.689 0 3.049.572 4.075 1.718.981 1.11 1.471 2.545 1.471 4.303zm-2.654.084c0-1.084-.227-2.014-.687-2.789-.536-.938-1.303-1.406-2.297-1.406-1.028 0-1.809.469-2.346 1.406-.459.777-.686 1.721-.686 2.838 0 1.085.227 2.014.686 2.788.554.939 1.326 1.407 2.324 1.407.976 0 1.743-.478 2.296-1.431.472-.79.71-1.73.71-2.813zm10.97-3.568a4.348 4.348 0 00-.806-.072c-.9 0-1.596.347-2.086 1.041-.426.613-.639 1.387-.639 2.322v6.167h-2.558l.024-8.053a64.87 64.87 0 00-.096-3.7h2.229l.093 2.249h.071c.27-.773.696-1.396 1.279-1.862.57-.42 1.186-.63 1.85-.63.236 0 .45.017.639.048v2.49zm11.442 3.024c0 .468-.03.863-.093 1.185h-7.676c.03 1.161.401 2.05 1.114 2.662.647.547 1.483.822 2.51.822 1.137 0 2.174-.185 3.106-.556l.401 1.813c-1.09.485-2.376.726-3.861.726-1.785 0-3.187-.536-4.207-1.608-1.017-1.072-1.527-2.512-1.527-4.317 0-1.773.474-3.249 1.423-4.426.993-1.257 2.336-1.885 4.026-1.885 1.659 0 2.916.628 3.769 1.885.675.998 1.015 2.233 1.015 3.7zm-2.439-.677c.016-.774-.15-1.443-.497-2.008-.443-.726-1.123-1.089-2.039-1.089-.836 0-1.517.354-2.036 1.065-.426.564-.68 1.242-.758 2.03h5.33v.002zM58.86 12.558c0 1.442-.424 2.527-1.27 3.256-.783.673-1.897 1.01-3.34 1.01-.715 0-1.327-.032-1.839-.096V8.85c.669-.11 1.389-.166 2.166-.166 1.374 0 2.41.305 3.108.915.782.69 1.175 1.675 1.175 2.96zm-1.326.036c0-.935-.242-1.651-.727-2.151-.485-.499-1.193-.749-2.126-.749-.395 0-.733.027-1.012.084v5.989c.155.024.438.035.85.035.962 0 1.705-.273 2.228-.82.523-.546.787-1.342.787-2.388zm8.357 1.224c0 .888-.248 1.615-.745 2.186-.521.587-1.211.88-2.073.88-.83 0-1.491-.28-1.984-.844-.492-.563-.738-1.272-.738-2.127 0-.894.253-1.628.762-2.198.508-.57 1.192-.855 2.054-.855.83 0 1.498.28 2.003.843.48.546.721 1.252.721 2.115zm-1.304.041c0-.533-.113-.99-.338-1.37-.264-.461-.64-.692-1.128-.692-.505 0-.889.23-1.153.691-.225.381-.337.846-.337 1.394 0 .533.113.99.337 1.371.273.46.652.691 1.141.691.48 0 .857-.234 1.128-.703.233-.388.35-.849.35-1.382zm10.731-2.881l-1.77 5.775h-1.152l-.734-2.508a19.093 19.093 0 01-.454-1.866h-.023a13.89 13.89 0 01-.455 1.866l-.779 2.508h-1.165l-1.664-5.775h1.292l.64 2.745c.154.65.282 1.268.384 1.854h.022c.094-.483.249-1.098.467-1.841l.803-2.757h1.025l.769 2.698c.186.658.337 1.29.454 1.9h.034a18.88 18.88 0 01.384-1.9l.687-2.698h1.235v-.001zm6.52 5.774H80.58v-3.307c0-1.02-.379-1.529-1.14-1.529-.373 0-.674.14-.908.42a1.51 1.51 0 00-.35.99v3.425h-1.257v-4.123c0-.507-.016-1.057-.046-1.653h1.106l.058.903h.035c.147-.28.365-.512.652-.697.34-.215.722-.325 1.14-.325.528 0 .967.174 1.316.524.435.427.652 1.065.652 1.913v3.46zm3.468.001h-1.257V8.328h1.257v8.425zm7.404-2.935c0 .888-.25 1.615-.746 2.186-.52.587-1.212.88-2.072.88-.832 0-1.493-.28-1.985-.844-.492-.563-.738-1.272-.738-2.127 0-.894.253-1.628.762-2.198.509-.57 1.193-.855 2.053-.855.832 0 1.498.28 2.004.843.48.546.721 1.252.721 2.115zm-1.306.041c0-.533-.113-.99-.337-1.37-.263-.461-.64-.692-1.127-.692-.507 0-.89.23-1.153.691-.226.381-.338.846-.338 1.394 0 .533.113.99.338 1.371.272.46.651.691 1.14.691.48 0 .856-.234 1.127-.703.234-.388.35-.849.35-1.382zm7.392 2.894h-1.13l-.093-.666h-.035c-.386.53-.937.797-1.652.797-.534 0-.966-.175-1.291-.523-.296-.316-.443-.71-.443-1.176 0-.706.288-1.244.867-1.616.579-.373 1.392-.555 2.44-.546v-.108c0-.761-.391-1.14-1.175-1.14-.558 0-1.05.143-1.475.427l-.255-.843c.525-.332 1.175-.499 1.94-.499 1.479 0 2.22.797 2.22 2.39v2.126c0 .577.028 1.036.082 1.377zm-1.306-1.985v-.89c-1.387-.025-2.08.363-2.08 1.163 0 .302.079.527.24.678.163.15.37.225.615.225.276 0 .534-.09.77-.267a1.096 1.096 0 00.455-.909zm8.452 1.984h-1.116l-.059-.927h-.035c-.356.706-.963 1.059-1.816 1.059-.682 0-1.25-.274-1.7-.82-.45-.546-.674-1.256-.674-2.127 0-.934.244-1.691.733-2.27.474-.538 1.055-.808 1.746-.808.76 0 1.291.26 1.594.784h.024V8.328h1.259v6.869c0 .562.014 1.08.044 1.555zm-1.303-2.435v-.963c0-.166-.012-.301-.035-.404a1.467 1.467 0 00-.455-.778 1.221 1.221 0 00-.841-.315c-.469 0-.836.19-1.106.571-.268.381-.404.867-.404 1.462 0 .57.129 1.034.387 1.39.272.38.639.57 1.099.57.413 0 .743-.158.994-.476.242-.293.361-.645.361-1.057zm12.059-.499c0 .888-.249 1.615-.746 2.186-.52.587-1.209.88-2.072.88-.829 0-1.49-.28-1.985-.844-.492-.563-.738-1.272-.738-2.127 0-.894.253-1.628.762-2.198.509-.57 1.193-.855 2.056-.855.829 0 1.497.28 2.001.843.48.546.722 1.252.722 2.115zm-1.304.041c0-.533-.112-.99-.337-1.37-.265-.461-.639-.692-1.129-.692-.504 0-.888.23-1.153.691-.226.381-.337.846-.337 1.394 0 .533.112.99.337 1.371.272.46.651.691 1.141.691.48 0 .858-.234 1.129-.703.232-.388.349-.849.349-1.382zm8.066 2.893h-1.257v-3.307c0-1.02-.379-1.529-1.141-1.529-.373 0-.674.14-.907.42a1.5 1.5 0 00-.349.99v3.425h-1.259v-4.123c0-.507-.015-1.057-.045-1.653h1.104l.059.903h.035c.148-.28.366-.512.652-.697a2.096 2.096 0 011.141-.325c.527 0 .966.174 1.315.524.436.427.652 1.065.652 1.913v3.46zm8.463-4.812h-1.385v2.805c0 .713.246 1.069.734 1.069.225 0 .412-.02.56-.06l.032.974c-.248.095-.574.143-.976.143-.497 0-.884-.154-1.163-.463-.281-.309-.42-.828-.42-1.557V11.94h-.827v-.961h.827v-1.06l1.232-.38v1.438h1.385v.962h.001zm6.658 4.813h-1.259v-3.284c0-1.035-.379-1.553-1.139-1.553-.583 0-.981.3-1.2.9a1.659 1.659 0 00-.059.462v3.473h-1.256V8.328h1.256v3.48h.024c.396-.633.964-.949 1.7-.949.52 0 .951.174 1.293.523.426.435.64 1.082.64 1.937v3.434zm6.867-3.161c0 .23-.017.424-.047.582h-3.771c.017.57.197 1.006.546 1.307.319.27.731.404 1.235.404.558 0 1.066-.09 1.525-.273l.197.892c-.537.237-1.168.356-1.899.356-.876 0-1.566-.263-2.065-.79-.502-.527-.75-1.234-.75-2.12 0-.871.232-1.597.698-2.175.488-.617 1.146-.926 1.978-.926.814 0 1.432.309 1.849.926.337.49.504 1.097.504 1.817zm-1.2-.332c.01-.381-.073-.71-.243-.986-.219-.357-.551-.535-1.001-.535-.411 0-.745.173-1.001.522a1.97 1.97 0 00-.373.999h2.618z" fill="#fff"/></g><defs><clipPath id="clip0"><path fill="#fff" transform="translate(0 .297)" d="M0 0h162v49H0z"/></clipPath></defs></svg>