<svg width="137" height="41" fill="none" xmlns="http://www.w3.org/2000/svg"><g clip-path="url(#clip0)"><path d="M132.126 40.148H4.799C2.153 40.148 0 38.02 0 35.415V4.875C0 2.267 2.153.147 4.8.147h127.326c2.644 0 4.874 2.12 4.874 4.726v30.541c0 2.605-2.23 4.733-4.874 4.733z" fill="#D8DBE6"/><path d="M136.018 35.417c0 2.116-1.74 3.83-3.891 3.83H4.799c-2.15 0-3.896-1.714-3.896-3.83V4.874c0-2.115 1.746-3.835 3.896-3.835h127.327c2.152 0 3.891 1.72 3.891 3.835l.001 30.543z" fill="#fff"/><path d="M30.574 19.932c-.03-3.223 2.678-4.79 2.802-4.864-1.533-2.203-3.91-2.504-4.745-2.528-1.996-.207-3.932 1.177-4.95 1.177-1.036 0-2.602-1.157-4.29-1.123-2.172.033-4.203 1.272-5.317 3.196-2.3 3.923-.585 9.688 1.618 12.86 1.102 1.552 2.39 3.286 4.076 3.225 1.649-.067 2.265-1.036 4.255-1.036 1.971 0 2.55 1.036 4.27.997 1.769-.028 2.883-1.56 3.947-3.127 1.273-1.78 1.785-3.533 1.805-3.623-.042-.014-3.437-1.29-3.47-5.154zm-3.247-9.478c.887-1.093 1.494-2.58 1.325-4.089-1.284.056-2.889.875-3.813 1.944-.818.942-1.549 2.486-1.36 3.938 1.442.106 2.922-.717 3.848-1.793z" fill="#000"/><path d="M54.44 31.652h-2.305l-1.262-3.909h-4.388l-1.203 3.91H43.04l4.347-13.309h2.685l4.369 13.308zm-3.948-5.549l-1.141-3.475c-.121-.355-.347-1.19-.681-2.507h-.04a95.853 95.853 0 01-.642 2.507l-1.121 3.475h3.625zm15.128.633c0 1.632-.447 2.922-1.343 3.87-.801.842-1.797 1.263-2.985 1.263-1.283 0-2.204-.454-2.766-1.362h-.04v5.055h-2.164V25.215a64.74 64.74 0 00-.08-3.159h1.903l.12 1.521h.041c.722-1.146 1.817-1.718 3.286-1.718 1.15 0 2.108.447 2.875 1.342.77.896 1.153 2.074 1.153 3.535zm-2.204.078c0-.934-.213-1.704-.641-2.31-.468-.632-1.096-.948-1.884-.948a2.27 2.27 0 00-1.452.523 2.42 2.42 0 00-.852 1.373c-.067.264-.1.48-.1.65v1.6c0 .698.217 1.287.651 1.768.435.481.999.721 1.693.721.815 0 1.45-.31 1.903-.928.455-.619.682-1.435.682-2.449zm13.404-.078c0 1.632-.447 2.922-1.343 3.87-.8.842-1.796 1.263-2.984 1.263-1.283 0-2.205-.454-2.765-1.362h-.04v5.055h-2.164V25.215a64.74 64.74 0 00-.08-3.159h1.903l.12 1.521h.041c.72-1.146 1.816-1.718 3.286-1.718 1.148 0 2.107.447 2.876 1.342.766.896 1.15 2.074 1.15 3.535zm-2.203.078c0-.934-.215-1.704-.643-2.31-.468-.632-1.094-.948-1.882-.948-.535 0-1.02.176-1.454.523a2.42 2.42 0 00-.85 1.373c-.066.264-.1.48-.1.65v1.6c0 .698.217 1.287.65 1.768.433.48.998.721 1.694.721.815 0 1.449-.31 1.903-.928.454-.619.682-1.435.682-2.449zm14.727 1.106c0 1.132-.4 2.053-1.2 2.764-.88.777-2.105 1.165-3.679 1.165-1.453 0-2.618-.276-3.5-.829l.502-1.777c.95.566 1.992.85 3.127.85.815 0 1.45-.182 1.905-.544.454-.362.68-.848.68-1.454 0-.54-.187-.995-.561-1.364-.373-.369-.995-.712-1.863-1.029-2.365-.869-3.546-2.142-3.546-3.816 0-1.094.414-1.99 1.243-2.689.826-.699 1.928-1.048 3.306-1.048 1.23 0 2.25.211 3.065.632l-.54 1.738c-.762-.408-1.623-.612-2.586-.612-.76 0-1.355.185-1.782.553-.36.33-.54.73-.54 1.205 0 .526.206.961.62 1.303.36.316 1.014.658 1.964 1.027 1.162.461 2.016 1 2.565 1.618.547.616.82 1.387.82 2.307zm7.153-4.263h-2.385v4.659c0 1.184.42 1.777 1.263 1.777.386 0 .707-.034.96-.1l.06 1.62c-.426.157-.987.236-1.682.236-.854 0-1.522-.258-2.004-.77-.48-.515-.722-1.377-.722-2.588v-4.837h-1.42v-1.6h1.42v-1.756l2.125-.632v2.389h2.385v1.602zm10.76 3.118c0 1.475-.428 2.686-1.283 3.633-.896.975-2.085 1.461-3.568 1.461-1.429 0-2.566-.467-3.415-1.4-.848-.935-1.272-2.114-1.272-3.535 0-1.487.436-2.705 1.312-3.652.874-.948 2.053-1.422 3.536-1.422 1.428 0 2.578.467 3.446 1.402.83.907 1.244 2.078 1.244 3.513zm-2.245.07c0-.886-.192-1.645-.58-2.278-.454-.766-1.102-1.148-1.943-1.148-.869 0-1.53.383-1.984 1.148-.388.634-.58 1.405-.58 2.317 0 .885.192 1.644.58 2.276.468.766 1.122 1.148 1.965 1.148.826 0 1.475-.39 1.942-1.168.399-.645.6-1.412.6-2.296zm9.278-2.914a3.814 3.814 0 00-.682-.059c-.761 0-1.35.283-1.764.85-.36.5-.541 1.132-.541 1.895v5.035h-2.163l.021-6.574c0-1.106-.028-2.113-.081-3.02h1.884l.079 1.835h.06c.228-.63.589-1.139 1.082-1.52a2.643 2.643 0 011.564-.514c.2 0 .38.014.541.04v2.032zm9.676 2.469c0 .382-.026.704-.079.967h-6.491c.025.948.339 1.673.942 2.173.547.447 1.254.671 2.123.671.961 0 1.838-.15 2.626-.454l.339 1.48c-.921.396-2.009.593-3.265.593-1.51 0-2.695-.438-3.558-1.313-.86-.875-1.291-2.05-1.291-3.524 0-1.447.4-2.652 1.203-3.613.84-1.026 1.976-1.539 3.405-1.539 1.403 0 2.466.513 3.187 1.54.572.814.859 1.822.859 3.02zm-2.063-.553c.014-.632-.127-1.178-.42-1.639-.375-.593-.95-.889-1.725-.889-.707 0-1.282.29-1.722.87-.36.46-.574 1.013-.64 1.657h4.507v.001z" fill="#1B2033"/><path d="M49.776 10.158c0 1.177-.358 2.063-1.073 2.658-.663.549-1.605.824-2.825.824a13.28 13.28 0 01-1.555-.078V7.13a11.64 11.64 0 011.831-.136c1.162 0 2.038.249 2.629.747.661.563.993 1.368.993 2.416zm-1.121.029c0-.763-.205-1.348-.615-1.756-.41-.407-1.009-.611-1.797-.611-.335 0-.62.022-.857.068v4.889c.131.02.37.029.719.029.814 0 1.442-.223 1.884-.67.443-.445.666-1.095.666-1.95zm7.067.998c0 .726-.21 1.32-.63 1.785-.44.48-1.024.718-1.753.718-.702 0-1.261-.229-1.678-.689-.416-.459-.624-1.038-.624-1.736 0-.73.214-1.329.644-1.794.43-.465 1.009-.698 1.737-.698.703 0 1.267.23 1.694.688.406.446.61 1.023.61 1.726zm-1.103.034c0-.434-.096-.807-.285-1.118-.224-.377-.541-.565-.954-.565-.427 0-.752.188-.975.565-.191.31-.286.69-.286 1.137 0 .436.096.809.286 1.12.23.375.55.563.965.563.406 0 .724-.19.954-.573.197-.318.295-.694.295-1.129zm9.075-2.351l-1.497 4.714h-.974l-.62-2.047a15.148 15.148 0 01-.384-1.523h-.02a11.01 11.01 0 01-.384 1.523l-.659 2.047h-.985l-1.408-4.714h1.093l.541 2.24c.13.53.239 1.036.325 1.514h.02c.078-.394.21-.896.394-1.503l.679-2.25h.866l.65 2.202c.158.537.286 1.054.384 1.552h.03c.072-.485.18-1.002.325-1.552l.58-2.202h1.044v-.001zm5.514 4.714h-1.064v-2.7c0-.832-.32-1.248-.964-1.248a.966.966 0 00-.768.343 1.205 1.205 0 00-.295.808v2.796h-1.064v-3.366c0-.414-.013-.863-.038-1.35h.934l.05.738h.03c.123-.23.308-.418.55-.57.289-.175.611-.264.965-.264.446 0 .818.142 1.113.427.367.349.55.87.55 1.562v2.824zm2.933 0H71.08V6.705h1.062v6.877zm6.261-2.397c0 .726-.21 1.32-.63 1.785-.44.48-1.025.718-1.753.718-.703 0-1.262-.229-1.678-.689-.416-.459-.624-1.038-.624-1.736 0-.73.214-1.329.644-1.794.43-.465 1.009-.698 1.736-.698.704 0 1.267.23 1.695.688.406.446.61 1.023.61 1.726zm-1.104.034c0-.434-.095-.807-.285-1.118-.222-.377-.541-.565-.953-.565-.428 0-.753.188-.975.565-.191.31-.285.69-.285 1.137 0 .436.095.809.285 1.12.23.375.55.563.965.563.406 0 .723-.19.953-.573.198-.318.295-.694.295-1.129zm6.252 2.363h-.956l-.079-.543h-.03c-.326.433-.792.65-1.397.65-.451 0-.816-.143-1.091-.428a1.328 1.328 0 01-.375-.96c0-.575.244-1.014.734-1.319.489-.303 1.177-.452 2.063-.445v-.089c0-.62-.33-.93-.994-.93a2.25 2.25 0 00-1.247.348l-.216-.688c.444-.27.993-.407 1.641-.407 1.25 0 1.877.65 1.877 1.95v1.736c0 .471.024.846.07 1.124zm-1.105-1.62v-.727c-1.173-.02-1.76.296-1.76.95 0 .245.068.43.205.553a.75.75 0 00.52.184c.233 0 .45-.074.65-.219a.892.892 0 00.385-.742zm7.148 1.62h-.944l-.05-.757h-.03c-.3.576-.814.864-1.536.864a1.811 1.811 0 01-1.437-.67c-.38-.445-.57-1.024-.57-1.735 0-.763.206-1.381.62-1.853.4-.44.892-.66 1.477-.66.642 0 1.091.213 1.347.64h.02V6.705h1.065v5.607c0 .459.012.882.038 1.27zm-1.103-1.988v-.786c0-.136-.01-.246-.029-.33a1.19 1.19 0 00-.385-.635 1.055 1.055 0 00-.711-.257c-.397 0-.707.155-.936.466-.226.31-.34.708-.34 1.193 0 .466.108.844.326 1.135.23.31.541.465.93.465.349 0 .628-.13.84-.388a1.28 1.28 0 00.305-.863zm10.198-.409c0 .726-.21 1.32-.63 1.785-.44.48-1.023.718-1.752.718-.702 0-1.26-.229-1.679-.689-.416-.459-.624-1.038-.624-1.736 0-.73.214-1.329.644-1.794.43-.465 1.01-.698 1.739-.698.701 0 1.266.23 1.692.688.406.446.61 1.023.61 1.726zm-1.102.034c0-.434-.095-.807-.285-1.118-.224-.377-.54-.565-.955-.565-.426 0-.75.188-.975.565-.19.31-.285.69-.285 1.137 0 .436.095.809.285 1.12.23.375.551.563.965.563.406 0 .726-.19.955-.573.196-.318.295-.694.295-1.129zm6.821 2.363h-1.062v-2.7c0-.832-.321-1.248-.966-1.248a.963.963 0 00-.767.343 1.2 1.2 0 00-.295.808v2.796h-1.065v-3.366c0-.414-.012-.863-.037-1.35h.933l.05.738h.03a1.53 1.53 0 01.551-.57 1.82 1.82 0 01.965-.264c.445 0 .817.142 1.112.427.368.349.551.87.551 1.562v2.824zm7.157-3.93h-1.171v2.29c0 .582.208.873.62.873a1.9 1.9 0 00.474-.049l.028.795c-.21.078-.486.117-.826.117-.421 0-.747-.126-.984-.378s-.355-.676-.355-1.27V9.651h-.699v-.785h.699v-.864l1.042-.31v1.173h1.171v.786h.001zm5.631 3.93h-1.065v-2.68c0-.845-.321-1.268-.963-1.268-.493 0-.83.245-1.015.735a1.317 1.317 0 00-.049.377v2.835h-1.063V6.705h1.063v2.84h.02c.335-.516.815-.774 1.437-.774.44 0 .805.142 1.094.427.36.355.541.883.541 1.58v2.804zm5.807-2.58c0 .188-.014.346-.039.475h-3.19c.014.466.166.82.462 1.067.27.22.618.33 1.044.33.472 0 .902-.074 1.29-.223l.166.728c-.453.194-.987.29-1.605.29-.741 0-1.325-.214-1.747-.644-.424-.43-.634-1.007-.634-1.731 0-.711.196-1.303.591-1.775.412-.504.969-.756 1.672-.756.688 0 1.211.252 1.564.756.285.4.426.895.426 1.483zm-1.015-.271a1.397 1.397 0 00-.206-.805c-.184-.291-.466-.437-.846-.437-.347 0-.63.142-.846.427a1.566 1.566 0 00-.316.815h2.214z" fill="#596180"/></g><defs><clipPath id="clip0"><path fill="#fff" transform="translate(0 .148)" d="M0 0h137v40H0z"/></clipPath></defs></svg>