<svg width="373" height="497" fill="none" xmlns="http://www.w3.org/2000/svg"><g opacity=".5" clip-path="url(#clip0)"><path d="M718.323 241.52c-23.09 2.332-76.158 4.379-103.714-6.097-34.446-13.094-47.707-87.862-69.196-94.39-21.488-6.528-56.515-17.455-70.143-27.298-13.628-9.842-17.97-26.873-29.236-36.857-11.266-9.984-45.409-14.095-55.037-24.413-9.627-10.32-10.232-28.286-15.012-40.79-4.781-12.505-15.802-26.293-17.111-40.19-1.308-13.898 12.644-93.378 19.937-106.133" stroke="#1C8753" stroke-linecap="round" stroke-linejoin="round"/><path d="M733.902 232.531c-23.09 2.333-77.078 7.229-103.772-18.884-26.336-25.763-43.191-75.816-64.679-82.344-21.488-6.528-63.988-15.586-77.616-25.428s-10.412-39.17-21.678-49.154c-11.267-9.984-40.79-8.213-50.417-18.532-9.627-10.319-10.232-28.285-15.013-40.79-4.781-12.505-25.74-18.117-27.049-32.014-1.308-13.898 12.044-95.474 19.337-108.229" stroke="#1C8753" stroke-linecap="round" stroke-linejoin="round"/><path d="M743.982 226.716c-23.09 2.332-77.078 7.228-103.772-18.885-26.336-25.763-24.863-86.39-46.351-92.918-21.489-6.528-82.316-5.011-95.944-14.854-13.628-9.842 7.916-49.745-3.35-59.729-11.267-9.983-54.577 5.847-71.98-12.806-15.181-16.273 11.331-34.01 6.55-46.515-4.781-12.505-39.74-8.819-41.048-22.716-1.309-13.898 26.042-104.772 33.336-117.527" stroke="#1C8753" stroke-linecap="round" stroke-linejoin="round"/><path d="M759.56 217.727c-23.089 2.333-81.526 9.796-108.22-16.317-26.336-25.763-2.086-99.532-23.575-106.06-21.488-6.528-96.548 12.969-117.71-10.231-17.149-18.8 24.11-38.942 2.829-57.8-21.281-18.859-64.261 12.655-81.664-5.998-15.181-16.272 26.607-26.602 17.893-49.397-8.715-22.794-49.373-5.092-50.682-18.99-3.688-39.164 38.283-112.444 45.577-125.199" stroke="#1C8753" stroke-linecap="round" stroke-linejoin="round"/><path d="M766.795 213.553c-23.089 2.332-79.035 8.359-105.729-17.755-26.336-25.762 9.593-89.007-13.88-113.484-23.474-24.477-96.431 14.732-117.593-8.468-17.149-18.8 19.646-36.367-1.634-55.225-21.281-18.858-81.438 4.434-89.269-3.96-7.832-8.395 36.016-28.109 27.301-50.903-8.715-22.794-56.066-4.65-57.375-18.547-3.688-39.165 30.68-105.936 59.699-131.5" stroke="#1C8753" stroke-linecap="round" stroke-linejoin="round"/><path d="M596.28 245.998c27.556 10.475 18.13 33.497 24.253 52.554V-115.35H345.362c4.748 19.85-2.587 67.428-1.278 81.326 1.309 13.897 6.798 38.203 11.579 50.708 4.781 12.504-4.662 28.942 4.965 39.26 9.628 10.32 49.539 27.586 67.432 37.41 13.198 7.244 24.172 19.632 37.8 29.474 13.628 9.842 43.809 22.955 65.297 29.483 21.488 6.528 30.677 80.593 65.123 93.687z" fill="#1C8753" fill-opacity=".05" stroke="#1C8753" stroke-linecap="round" stroke-linejoin="round"/><path d="M587.4 256.006c27.556 10.475 11.431 32.477 17.554 51.534v-414.166H330.242c4.747 19.85-1.379 44.142-.07 58.039 1.309 13.897-2.051 64.677 8.084 91.187 10.135 26.51 23.053 48.361 48.949 57.23 25.896 8.87 47.053 29.631 64.947 39.454 13.198 7.245 40.228 14.642 53.856 24.484 13.628 9.842 9.897 26.647 32.358 45.435 22.462 18.787 14.588 33.709 49.034 46.803z" fill="#1C8753" fill-opacity=".05" stroke="#1C8753" stroke-linecap="round" stroke-linejoin="round"/><path d="M573.006 264.31c22.324 15.815 17.12 29.196 23.243 48.253V-99.488H317.87c-.947 24.357-13.731 39.059-4.472 55.085 9.258 16.026-7.979 61.381 2.156 87.89 10.135 26.51 29.331 58.172 55.227 67.041 25.896 8.869 36.887 29.39 54.781 39.213 13.198 7.245 48.386 20.924 62.015 30.766 13.628 9.843 16.75 18.42 39.212 37.207 22.462 18.787 23.893 30.782 46.217 46.596z" fill="#1C8753" fill-opacity=".05" stroke="#1C8753" stroke-linecap="round" stroke-linejoin="round"/><path d="M563.717 288.2c13.691 11.904 14.733 21.907 0 43.132V288.2c-2.73-2.374-5.964-4.824-9.675-7.453-22.324-15.814-17.356-36.386-39.818-55.173-22.462-18.787-24.474-28.615-38.102-38.458-13.628-9.842-67.026-14.236-80.224-21.481-17.893-9.823-18.555-40.577-44.451-49.447-25.896-8.869-53.023-38.396-63.158-64.906-10.135-26.51 12.635-65.9 3.196-92.81-9.438-26.913.835-33.45 8.058-47.386h264.174V288.2z" fill="#1C8753" fill-opacity=".05"/><path d="M563.717 331.332c17.671-25.458 12.649-34.771-9.675-50.585-22.324-15.814-17.356-36.386-39.818-55.173-22.462-18.787-24.474-28.615-38.102-38.458-13.628-9.842-67.026-14.236-80.224-21.481-17.893-9.823-18.555-40.577-44.451-49.447-25.896-8.869-53.023-38.396-63.158-64.906-10.135-26.51 12.635-65.9 3.196-92.81-9.438-26.913.835-33.45 8.058-47.386h264.174v420.246z" stroke="#1C8753" stroke-linecap="round" stroke-linejoin="round"/><path d="M545.389 341.907c17.671-25.459 12.649-34.771-9.675-50.586-22.324-15.814-21.64-40.629-33.577-53.889-11.938-13.259-16.273-23.09-34.522-30.144-22.811-8.818-25.399-.609-35.608-8.761-10.208-8.152-31.502-15.402-30.794-3.601.709 11.801 9.079 5.141 17.46 30.221 8.38 25.08 4.938 62.476 10.777 76.812 5.838 14.336 8.475 46.394 21.858 60.041 10.706 10.917 17.086 20.057 18.937 23.262" stroke="#1C8753" stroke-linecap="round" stroke-linejoin="round"/><path d="M229.735-.36c-8.379 14.381-20.058 18.577-26.775 13.295-6.717-5.282-10.541-24.457 1.315-33.757 11.855-9.3 17.323-25.425 21.801-21.904 4.478 3.522 12.037 27.983 3.659 42.365zm55.761-30.387c-.412-18.689-11.905-20.605-9.85-45.6h183.603v467.954c-.794-1.374-14.847-18.297-27.649-34.11-12.802-15.814-20.497-49.226-17.031-66.489 2.774-13.811-2.41-40.125-11.829-62.774-9.42-22.649-21.692-37.546-24.659-55.371-2.967-17.825-15.169-31.543-25.396-43.958-10.227-12.414-25.258 1.752-47.635-27.463S261.327 68.06 263.49 52.77c2.163-15.29 22.417-64.828 22.006-83.517z" fill="#1C8753" fill-opacity=".05" stroke="#1C8753" stroke-linecap="round" stroke-linejoin="round"/><path d="M268.084-20.701c-.411-18.69-11.904-20.605-9.85-45.6h183.603v467.953c-.793-1.373-7.832-19.901-20.634-35.715-12.801-15.814-31.584-48.324-28.117-65.587 2.774-13.81 7.567-39.775-1.853-62.424s-24.848-38.779-27.814-56.604c-2.967-17.825-13.214-34.502-23.441-46.917-10.227-12.415-26.845-.995-49.222-30.21-22.376-29.215-68.414-22.19-73.355-41.318-4.942-19.127 51.095-64.89 50.683-83.578z" fill="#1C8753" fill-opacity=".05" stroke="#1C8753" stroke-linecap="round" stroke-linejoin="round"/><path d="M247.696-60.221c-2.055 24.995 1.649 31.406 2.06 50.094.412 18.689-55.625 64.451-50.683 83.579 4.941 19.127 56.651 3.945 79.028 33.16 22.377 29.215 31.631 29.371 41.858 41.785 10.227 12.415 22.164 25.675 25.131 43.5 2.967 17.825 24.81 30.253 34.23 52.902 9.419 22.649-1.788 52.315-4.562 66.126-3.467 17.263 24.479 44.486 37.281 60.299 12.802 15.814 10.677 39.629 11.47 41.003" stroke="#1C8753" stroke-linecap="round" stroke-linejoin="round"/><path d="M242.417-8.334c-.411-18.689-12.665-29.324-1.003-48.263h176.597v471.996c-.794-1.374 1.331-25.189-11.47-41.002-12.802-15.814-60.988-35.022-57.521-52.285 2.774-13.811 27.921-52.13 18.501-74.779-9.419-22.649-38.291-21.865-41.258-39.69-2.967-17.825-14.451-47.219-24.678-59.634s-8.498-7.307-30.875-36.522c-22.377-29.215-82.743-10.252-87.684-29.38-4.942-19.127 59.802-71.753 59.391-90.441z" fill="#1C8753" fill-opacity=".05" stroke="#1C8753" stroke-linecap="round" stroke-linejoin="round"/><path d="M190.467 22.295c-.411-18.688-12.147-30.278-.485-49.218h206.494v406.115c.197.221.389.448.576.679 12.086 14.929.132 43.183-.576 47.454v.499c-.044-.077-.042-.246 0-.499v-48.133c-13.26-14.929-48.001-8.323-68.991-44.655-9.16-15.855 40.632-61.692 31.213-84.342-9.42-22.649-45.593-2.938-48.56-20.763-2.967-17.825-2.38-57.785-12.608-70.2-10.227-12.415-25.627-5.498-48.004-34.713s-72.748-11.48-77.69-30.607c-4.941-19.128 19.043-52.928 18.631-71.617z" fill="#1C8753" fill-opacity=".05" stroke="#1C8753" stroke-linecap="round" stroke-linejoin="round"/><path d="M168.932 34.72c-.411-18.689-12.148-30.278-.485-49.218h206.494v406.115c.197.221.389.448.576.679 12.085 14.929.132 43.183-.576 47.454v.499c-.045-.077-.042-.246 0-.499v-48.133c-13.26-14.929-48.001-8.324-68.991-44.655-9.16-15.855 40.632-61.693 31.212-84.342-9.419-22.649-39.727-11.344-42.694-29.168-2.967-17.825-13.152-42.963-23.379-55.378-10.227-12.415-5.598-19.206-27.975-48.421-22.377-29.215-78.148-9.78-83.09-28.908-4.941-19.127 9.319-47.336 8.908-66.025z" fill="#1C8753" fill-opacity=".05" stroke="#1C8753" stroke-linecap="round" stroke-linejoin="round"/></g><defs><clipPath id="clip0"><path fill="#fff" transform="matrix(0 -1 1 0 0 497)" d="M0 0h497v373H0z"/></clipPath></defs></svg>