<svg width="32" height="32" fill="none" xmlns="http://www.w3.org/2000/svg"><path d="M21.333 16a1.333 1.333 0 100-2.667 1.333 1.333 0 000 2.667z" fill="#1C8753"/><path fill-rule="evenodd" clip-rule="evenodd" d="M2.667 21.645v-11.29a1.333 1.333 0 012.019-1.143l4.524 2.714c.066.04.153.016.191-.052.454-.805 3.209-5.207 9.265-5.207 6.667 0 10.667 6.666 10.667 9.333s-4 9.333-10.666 9.333c-6.057 0-8.812-4.402-9.266-5.207a.139.139 0 00-.191-.052l-4.524 2.714a1.333 1.333 0 01-2.02-1.143zm5.17-7.432a2.805 2.805 0 003.888-1.03c.31-.551 2.37-3.85 6.941-3.85 2.384 0 4.385 1.184 5.868 2.802A10.231 10.231 0 0126.2 14.57c.393.82.467 1.324.467 1.431 0 .108-.074.61-.467 1.431a10.23 10.23 0 01-1.665 2.434c-1.483 1.618-3.484 2.802-5.867 2.802-4.572 0-6.632-3.299-6.942-3.85a2.805 2.805 0 00-3.887-1.03L5.333 19.29v-6.58l2.505 1.503z" fill="#1C8753"/><path opacity=".3" fill-rule="evenodd" clip-rule="evenodd" d="M11.725 13.182a2.805 2.805 0 01-3.887 1.03L5.333 12.71v6.58l2.505-1.503a2.805 2.805 0 013.887 1.03c.31.551 2.37 3.85 6.942 3.85 2.384 0 4.384-1.184 5.867-2.802A10.228 10.228 0 0026.2 17.43c.393-.82.467-1.324.467-1.431 0-.107-.075-.61-.468-1.431a10.228 10.228 0 00-1.665-2.434c-1.483-1.618-3.483-2.802-5.867-2.802-4.572 0-6.632 3.299-6.942 3.85zm10.942 1.485a1.333 1.333 0 11-2.667 0 1.333 1.333 0 012.667 0z" fill="#1C8753"/></svg>