<svg width="165" height="50" fill="none" xmlns="http://www.w3.org/2000/svg"><g clip-path="url(#clip0)"><path fill-rule="evenodd" clip-rule="evenodd" d="M158.887 49.297H6.113C2.744 49.297 0 46.535 0 43.172V6.422C0 3.046 2.744.297 6.113.297h152.774c3.366 0 6.113 2.75 6.113 6.125v36.75c0 3.363-2.747 6.125-6.113 6.125z" fill="#000"/><path fill-rule="evenodd" clip-rule="evenodd" d="M158.887 1.277c2.826 0 5.139 2.313 5.139 5.145v36.75a5.146 5.146 0 01-5.139 5.144H6.113c-2.826 0-5.139-2.312-5.139-5.144V6.422a5.146 5.146 0 015.14-5.145h152.773zm0-.98H6.113C2.744.297 0 3.058 0 6.422v36.75c0 3.376 2.744 6.125 6.113 6.125h152.774c3.366 0 6.113-2.75 6.113-6.125V6.422c0-3.364-2.747-6.125-6.113-6.125z" fill="#D8DBE6"/><path d="M86.923 16.506c-1.102 0-2.03-.388-2.766-1.152a3.935 3.935 0 01-1.117-2.81c0-1.115.377-2.059 1.117-2.807.732-.764 1.66-1.152 2.763-1.152 1.09 0 2.018.388 2.765 1.152.74.772 1.117 1.716 1.117 2.807-.012 1.118-.388 2.062-1.117 2.807-.731.77-1.66 1.155-2.762 1.155zm-32.786 0a3.828 3.828 0 01-2.777-1.136c-.76-.752-1.145-1.702-1.145-2.823s.386-2.071 1.145-2.823c.75-.754 1.684-1.136 2.777-1.136a3.85 3.85 0 011.551.324c.489.21.887.498 1.181.85l.073.088-.823.812-.085-.1c-.464-.556-1.086-.828-1.909-.828a2.63 2.63 0 00-1.903.782c-.531.522-.802 1.206-.802 2.034 0 .828.27 1.512.802 2.035a2.63 2.63 0 001.903.782c.783 0 1.442-.263 1.955-.782.303-.306.492-.734.558-1.274h-2.637v-1.143h3.77l.015.104c.027.193.054.391.054.575 0 1.053-.315 1.906-.94 2.535-.71.745-1.64 1.124-2.763 1.124zm43.592-.162h-1.163l-3.56-5.734.03 1.033v4.698h-1.162V8.75H93.2l.037.058 3.348 5.401-.03-1.03V8.75h1.174v7.595zm-19.542 0h-1.178V9.892h-2.043V8.75h5.26v1.142h-2.042v6.452h.003zm-4.18 0h-1.175V8.75h1.175v7.594zm-6.602 0H66.23V9.892h-2.043V8.75h5.26v1.142h-2.042v6.452zm-3.961-.012h-4.505V8.75h4.505v1.142h-3.327v2.084h3.002v1.13h-3.002v2.084h3.327v1.142zM85.02 14.57a2.591 2.591 0 001.903.795c.762 0 1.384-.26 1.903-.795.516-.519.777-1.2.777-2.022 0-.822-.261-1.506-.774-2.022a2.596 2.596 0 00-1.903-.794c-.762 0-1.384.26-1.9.794-.516.52-.777 1.2-.777 2.022 0 .822.258 1.506.77 2.022z" fill="#fff"/><path fill-rule="evenodd" clip-rule="evenodd" d="M82.931 26.948c-2.868 0-5.194 2.19-5.194 5.211 0 2.994 2.34 5.212 5.194 5.212 2.868 0 5.194-2.206 5.194-5.212 0-3.021-2.326-5.211-5.194-5.211zm0 8.358c-1.57 0-2.92-1.308-2.92-3.16 0-1.878 1.354-3.158 2.92-3.158 1.57 0 2.92 1.28 2.92 3.159.003 1.863-1.35 3.159-2.92 3.159zM71.6 26.948c-2.869 0-5.194 2.19-5.194 5.211 0 2.994 2.34 5.212 5.194 5.212 2.868 0 5.193-2.206 5.193-5.212 0-3.021-2.328-5.211-5.193-5.211zm0 8.358c-1.57 0-2.92-1.308-2.92-3.16 0-1.878 1.353-3.158 2.92-3.158 1.569 0 2.92 1.28 2.92 3.159 0 1.863-1.351 3.159-2.92 3.159zm-13.484-6.767v2.206h5.26c-.16 1.237-.567 2.15-1.19 2.777-.77.776-1.96 1.619-4.058 1.619-3.232 0-5.76-2.627-5.76-5.88 0-3.254 2.528-5.881 5.76-5.881 1.746 0 3.018.693 3.962 1.579l1.554-1.564c-1.311-1.265-3.057-2.233-5.503-2.233-4.435 0-8.157 3.635-8.157 8.086 0 4.463 3.719 8.086 8.157 8.086 2.395 0 4.192-.788 5.612-2.273 1.448-1.457 1.906-3.513 1.906-5.172 0-.516-.04-.98-.121-1.374h-7.425c.003-.003.003.024.003.024zm55.151 1.717c-.434-1.17-1.745-3.32-4.435-3.32-2.665 0-4.881 2.11-4.881 5.21 0 2.928 2.192 5.212 5.139 5.212 2.368 0 3.746-1.457 4.314-2.312l-1.758-1.185c-.583.87-1.393 1.442-2.544 1.442-1.162 0-1.976-.532-2.516-1.58l6.924-2.887c0 .003-.243-.58-.243-.58zm-7.06 1.741c-.055-2.013 1.554-3.036 2.704-3.036.908 0 1.664.449 1.922 1.103l-4.626 1.933zm-5.625 5.05h2.274V21.736h-2.274v15.31zm-3.734-8.942h-.082c-.513-.614-1.487-1.17-2.731-1.17-2.584 0-4.963 2.288-4.963 5.227 0 2.927 2.367 5.187 4.963 5.187 1.229 0 2.219-.559 2.731-1.185h.082v.748c0 1.99-1.056 3.062-2.759 3.062-1.393 0-2.258-1.009-2.61-1.852l-1.976.831c.567 1.375 2.082 3.076 4.583 3.076 2.665 0 4.924-1.579 4.924-5.431v-9.351h-2.15v.858h-.012zm-2.61 7.2c-1.57 0-2.88-1.32-2.88-3.143 0-1.839 1.31-3.17 2.88-3.17 1.554 0 2.76 1.346 2.76 3.17.014 1.824-1.203 3.144-2.76 3.144zm29.674-13.57h-5.436v15.312h2.273v-5.798h3.166c2.517 0 4.991-1.836 4.991-4.75 0-2.915-2.465-4.763-4.994-4.763zm.067 7.375h-3.233v-5.254h3.233c1.703 0 2.665 1.414 2.665 2.627 0 1.2-.974 2.627-2.665 2.627zm14.039-2.19c-1.651 0-3.354.736-4.058 2.34l2.015.843c.434-.843 1.229-1.13 2.07-1.13 1.178 0 2.368.709 2.395 1.973v.162c-.406-.232-1.299-.586-2.367-.586-2.177 0-4.384 1.197-4.384 3.443 0 2.055 1.785 3.375 3.774 3.375 1.526 0 2.367-.693 2.892-1.497h.082v1.186h2.192v-5.866c0-2.73-2.016-4.243-4.611-4.243zm-.285 8.386c-.744 0-1.785-.367-1.785-1.308 0-1.185 1.299-1.634 2.407-1.634 1.002 0 1.475.217 2.07.516a2.743 2.743 0 01-2.692 2.426zm12.891-8.06l-2.61 6.642h-.082l-2.705-6.641h-2.446l4.058 9.284-2.313 5.16h2.368l6.243-14.444h-2.513zm-20.465 9.8h2.274v-15.31h-2.274v15.31z" fill="#fff"/><path fill-rule="evenodd" clip-rule="evenodd" d="M12.7 9.526c-.352.382-.555.965-.555 1.729v27.087c0 .764.203 1.348.567 1.714l.094.083 15.08-15.177v-.339L12.794 9.443l-.094.083z" fill="url(#paint0_linear)"/><path fill-rule="evenodd" clip-rule="evenodd" d="M32.904 30.036l-5.03-5.062v-.355l5.03-5.061.11.067 5.949 3.403c1.703.965 1.703 2.56 0 3.538l-5.95 3.403-.109.067z" fill="url(#paint1_linear)"/><path fill-rule="evenodd" clip-rule="evenodd" d="M33.013 29.969l-5.139-5.172L12.7 40.068c.556.599 1.488.666 2.529.083l17.784-10.182z" fill="url(#paint2_linear)"/><path fill-rule="evenodd" clip-rule="evenodd" d="M33.013 19.625L15.23 9.458c-1.041-.598-1.976-.516-2.529.083l15.174 15.256 5.14-5.172z" fill="url(#paint3_linear)"/><path opacity=".2" fill-rule="evenodd" clip-rule="evenodd" d="M32.904 29.859l-17.663 10.1c-.987.57-1.867.53-2.434.011l-.095.095.095.083c.567.516 1.447.559 2.434-.013L33.026 29.97l-.122-.11z" fill="#000"/><path opacity=".12" fill-rule="evenodd" clip-rule="evenodd" d="M38.963 26.389l-6.074 3.47.109.11 5.95-3.403c.852-.49 1.271-1.13 1.271-1.77-.051.587-.485 1.143-1.256 1.593z" fill="#000"/><path opacity=".25" fill-rule="evenodd" clip-rule="evenodd" d="M15.229 9.635l23.734 13.57c.77.437 1.205 1.008 1.271 1.592 0-.639-.419-1.28-1.271-1.769L15.228 9.458c-1.702-.98-3.083-.162-3.083 1.796v.178c0-1.962 1.38-2.765 3.084-1.797z" fill="#fff"/></g><defs><linearGradient id="paint0_linear" x1="26.534" y1="10.963" x2="2.358" y2="17.363" gradientUnits="userSpaceOnUse"><stop stop-color="#00A0FF"/><stop offset=".007" stop-color="#00A1FF"/><stop offset=".26" stop-color="#00BEFF"/><stop offset=".512" stop-color="#00D2FF"/><stop offset=".76" stop-color="#00DFFF"/><stop offset="1" stop-color="#00E3FF"/></linearGradient><linearGradient id="paint1_linear" x1="41.184" y1="24.797" x2="11.731" y2="24.797" gradientUnits="userSpaceOnUse"><stop stop-color="#FFE000"/><stop offset=".409" stop-color="#FFBD00"/><stop offset=".775" stop-color="orange"/><stop offset="1" stop-color="#FF9C00"/></linearGradient><linearGradient id="paint2_linear" x1="30.219" y1="27.611" x2="10.643" y2="60.349" gradientUnits="userSpaceOnUse"><stop stop-color="#FF3A44"/><stop offset="1" stop-color="#C31162"/></linearGradient><linearGradient id="paint3_linear" x1="8.879" y1=".516" x2="17.613" y2="15.137" gradientUnits="userSpaceOnUse"><stop stop-color="#32A071"/><stop offset=".069" stop-color="#2DA771"/><stop offset=".476" stop-color="#15CF74"/><stop offset=".801" stop-color="#06E775"/><stop offset="1" stop-color="#00F076"/></linearGradient><clipPath id="clip0"><path fill="#fff" transform="translate(0 .297)" d="M0 0h165v49H0z"/></clipPath></defs></svg>