<svg width="141" height="41" fill="none" xmlns="http://www.w3.org/2000/svg"><g clip-path="url(#clip0)"><path fill-rule="evenodd" clip-rule="evenodd" d="M135.776 40.148H5.224c-2.88 0-5.224-2.254-5.224-5v-30c0-2.755 2.345-5 5.224-5h130.552c2.877 0 5.224 2.245 5.224 5v30c0 2.746-2.347 5-5.224 5z" fill="#fff"/><path fill-rule="evenodd" clip-rule="evenodd" d="M135.776.949c2.415 0 4.391 1.888 4.391 4.2v30c0 2.311-1.963 4.199-4.391 4.199H5.224c-2.415 0-4.391-1.888-4.391-4.2v-30c0-2.311 1.963-4.2 4.391-4.2h130.552zm0-.8H5.224C2.344.148 0 2.402 0 5.148v30c0 2.755 2.345 5 5.224 5h130.552c2.877 0 5.224-2.245 5.224-5v-30c0-2.746-2.347-5-5.224-5z" fill="#D8DBE6"/><path d="M74.28 13.38c-.942 0-1.736-.316-2.364-.94a3.137 3.137 0 01-.954-2.294c0-.91.321-1.68.954-2.292.625-.623 1.42-.94 2.36-.94.932 0 1.726.317 2.364.94.633.631.954 1.402.954 2.292-.01.913-.332 1.683-.954 2.292-.625.628-1.42.942-2.36.942zm-28.017 0c-.921 0-1.72-.311-2.374-.927-.648-.614-.978-1.39-.978-2.304 0-.916.33-1.691.978-2.305.64-.616 1.44-.927 2.373-.927.457 0 .9.087 1.326.264a2.68 2.68 0 011.009.693l.062.072-.703.664-.072-.082c-.397-.454-.929-.676-1.632-.676a2.3 2.3 0 00-1.626.638c-.454.427-.685.985-.685 1.661s.23 1.234.685 1.66c.451.425.998.64 1.626.64.67 0 1.232-.215 1.67-.64.26-.249.42-.598.478-1.04h-2.254V9.84h3.221l.013.085c.024.157.047.32.047.469 0 .86-.27 1.556-.804 2.07-.607.608-1.4.917-2.36.917zm37.25-.132h-.993l-3.042-4.68.026.842v3.836h-.994V7.049h1.134l.03.047 2.862 4.41-.026-.841V7.049h1.004v6.2zm-16.699 0h-1.006V7.981h-1.746V7.05h4.495v.932h-1.746v5.267h.003zm-3.572 0h-1.004v-6.2h1.004v6.2zm-5.642 0h-1.003V7.981H54.85V7.05h4.495v.932H57.6v5.267zm-3.385-.01h-3.849v-6.19h3.85v.933h-2.843v1.701h2.565v.923h-2.566v1.7h2.843v.933zM72.653 11.8c.449.432.993.649 1.626.649.651 0 1.183-.212 1.627-.649.44-.424.664-.98.664-1.65 0-.671-.223-1.23-.662-1.651a2.271 2.271 0 00-1.626-.649c-.651 0-1.183.212-1.624.649-.44.424-.664.98-.664 1.65 0 .671.22 1.23.659 1.651z" fill="#596180"/><path fill-rule="evenodd" clip-rule="evenodd" d="M70.868 21.904c-2.451 0-4.438 1.788-4.438 4.254 0 2.444 2 4.255 4.438 4.255 2.452 0 4.438-1.8 4.438-4.255 0-2.466-1.986-4.254-4.438-4.254zm0 6.823c-1.34 0-2.495-1.067-2.495-2.579 0-1.533 1.157-2.578 2.495-2.578 1.341 0 2.496 1.045 2.496 2.578.002 1.521-1.155 2.579-2.496 2.579zm-9.683-6.823c-2.451 0-4.438 1.788-4.438 4.254 0 2.444 2 4.255 4.438 4.255 2.451 0 4.438-1.8 4.438-4.255 0-2.466-1.99-4.254-4.438-4.254zm0 6.823c-1.34 0-2.495-1.067-2.495-2.579 0-1.533 1.157-2.578 2.495-2.578 1.341 0 2.495 1.045 2.495 2.578 0 1.521-1.154 2.579-2.495 2.579zm-11.522-5.524v1.8h4.495c-.137 1.01-.485 1.756-1.017 2.267-.658.634-1.675 1.322-3.468 1.322-2.762 0-4.923-2.144-4.923-4.8 0-2.656 2.16-4.8 4.923-4.8 1.492 0 2.579.565 3.385 1.288l1.328-1.276c-1.12-1.033-2.612-1.823-4.702-1.823-3.79 0-6.97 2.967-6.97 6.6 0 3.644 3.177 6.602 6.97 6.602 2.046 0 3.582-.644 4.796-1.856 1.237-1.19 1.629-2.867 1.629-4.222 0-.421-.034-.8-.104-1.122H49.66c.003-.002.003.02.003.02zm47.129 1.402c-.371-.956-1.492-2.711-3.79-2.711-2.277 0-4.17 1.723-4.17 4.254 0 2.39 1.872 4.255 4.39 4.255a4.43 4.43 0 003.687-1.888l-1.502-.968c-.498.711-1.19 1.177-2.174 1.177-.993 0-1.689-.434-2.15-1.289l5.916-2.357c0 .003-.207-.473-.207-.473zm-6.034 1.421c-.046-1.643 1.328-2.479 2.312-2.479.775 0 1.421.367 1.642.9l-3.954 1.58zm-4.806 4.122h1.943V17.65h-1.943v12.498zm-3.19-7.299h-.07c-.44-.501-1.272-.955-2.335-.955-2.208 0-4.241 1.868-4.241 4.267 0 2.389 2.023 4.234 4.24 4.234 1.051 0 1.897-.456 2.335-.968h.07v.611c0 1.624-.902 2.5-2.358 2.5-1.19 0-1.93-.824-2.23-1.512l-1.689.678a4.22 4.22 0 003.917 2.512c2.277 0 4.207-1.29 4.207-4.434v-7.634h-1.836v.701h-.01zm-2.231 5.878c-1.342 0-2.462-1.078-2.462-2.566 0-1.502 1.12-2.589 2.462-2.589 1.328 0 2.357 1.1 2.357 2.589.013 1.488-1.027 2.566-2.357 2.566zm25.358-11.078h-4.646v12.5h1.943v-4.734h2.705c2.151 0 4.265-1.499 4.265-3.878s-2.107-3.887-4.267-3.887zm.057 6.02h-2.763V19.38h2.763c1.455 0 2.277 1.155 2.277 2.145 0 .98-.832 2.144-2.277 2.144zm11.997-1.788c-1.411 0-2.867.601-3.468 1.91l1.722.689c.371-.688 1.05-.923 1.769-.923 1.006 0 2.023.579 2.047 1.611v.132c-.348-.19-1.111-.478-2.024-.478-1.86 0-3.745.977-3.745 2.81 0 1.678 1.525 2.756 3.224 2.756 1.305 0 2.023-.566 2.472-1.222h.07v.967h1.873v-4.788c0-2.23-1.723-3.464-3.94-3.464zm-.244 6.846c-.636 0-1.525-.3-1.525-1.067 0-.968 1.11-1.335 2.057-1.335.856 0 1.26.177 1.769.422-.14 1.122-1.126 1.97-2.301 1.98zm11.016-6.579l-2.231 5.422h-.07l-2.311-5.422h-2.091l3.469 7.579-1.977 4.212h2.023l5.336-11.79h-2.148zm-17.488 8h1.943V17.65h-1.943v12.498z" fill="#1B2033"/><path fill-rule="evenodd" clip-rule="evenodd" d="M10.853 7.682c-.3.312-.475.788-.475 1.412v22.112c0 .623.174 1.1.486 1.399l.08.067L23.83 20.283v-.277L10.934 7.615l-.08.067z" fill="url(#paint0_linear)"/><path fill-rule="evenodd" clip-rule="evenodd" d="M28.118 24.425l-4.298-4.132v-.29l4.298-4.131.093.054 5.084 2.778c1.456.788 1.456 2.09 0 2.888l-5.084 2.778-.093.055z" fill="url(#paint1_linear)"/><path fill-rule="evenodd" clip-rule="evenodd" d="M28.212 24.37l-4.392-4.222-12.967 12.467c.475.488 1.271.543 2.16.067l15.199-8.312z" fill="url(#paint2_linear)"/><path fill-rule="evenodd" clip-rule="evenodd" d="M28.212 15.926L13.014 7.627c-.89-.489-1.689-.421-2.161.067L23.82 20.148l4.392-4.222z" fill="url(#paint3_linear)"/><path opacity=".2" fill-rule="evenodd" clip-rule="evenodd" d="M28.118 24.28l-15.094 8.245c-.843.467-1.595.434-2.08.01l-.08.077.08.068c.485.421 1.237.456 2.08-.01l15.198-8.3-.104-.09z" fill="#000"/><path opacity=".12" fill-rule="evenodd" clip-rule="evenodd" d="M33.295 21.448l-5.19 2.833.093.09 5.084-2.779c.73-.399 1.087-.922 1.087-1.444-.044.48-.415.933-1.074 1.3z" fill="#000"/><path opacity=".25" fill-rule="evenodd" clip-rule="evenodd" d="M13.014 7.772l20.282 11.077c.659.357 1.03.823 1.087 1.3 0-.522-.358-1.046-1.087-1.445L13.014 7.627c-1.455-.8-2.636-.132-2.636 1.466v.145c0-1.6 1.18-2.257 2.636-1.466z" fill="#fff"/></g><defs><linearGradient id="paint0_linear" x1="22.675" y1="8.855" x2="2.144" y2="14.545" gradientUnits="userSpaceOnUse"><stop stop-color="#00A0FF"/><stop offset=".007" stop-color="#00A1FF"/><stop offset=".26" stop-color="#00BEFF"/><stop offset=".512" stop-color="#00D2FF"/><stop offset=".76" stop-color="#00DFFF"/><stop offset="1" stop-color="#00E3FF"/></linearGradient><linearGradient id="paint1_linear" x1="35.193" y1="20.148" x2="10.024" y2="20.148" gradientUnits="userSpaceOnUse"><stop stop-color="#FFE000"/><stop offset=".409" stop-color="#FFBD00"/><stop offset=".775" stop-color="orange"/><stop offset="1" stop-color="#FF9C00"/></linearGradient><linearGradient id="paint2_linear" x1="25.824" y1="22.446" x2="10.198" y2="49.8" gradientUnits="userSpaceOnUse"><stop stop-color="#FF3A44"/><stop offset="1" stop-color="#C31162"/></linearGradient><linearGradient id="paint3_linear" x1="7.588" y1=".327" x2="14.559" y2="12.544" gradientUnits="userSpaceOnUse"><stop stop-color="#32A071"/><stop offset=".069" stop-color="#2DA771"/><stop offset=".476" stop-color="#15CF74"/><stop offset=".801" stop-color="#06E775"/><stop offset="1" stop-color="#00F076"/></linearGradient><clipPath id="clip0"><path fill="#fff" transform="translate(0 .148)" d="M0 0h141v40H0z"/></clipPath></defs></svg>