<svg width="600" height="480" fill="none" xmlns="http://www.w3.org/2000/svg"><g clip-path="url(#clip0)"><path fill="#fff" d="M0 0h600v480H0z"/><path opacity=".2" fill-rule="evenodd" clip-rule="evenodd" d="M549.731 233.299c5.154 57.463 46.726 119.156 16.126 168.075-30.485 48.735-101.927 44.884-157.811 58.43-51.026 12.368-101.197 26.875-152.733 16.842-56.795-11.057-111.651-33.899-151.294-76.029-43.201-45.912-91.237-105.762-77.685-167.318C40 171.218 122.248 156.733 167.536 112.107c34.69-34.184 45.682-94.088 92.137-108.743 46.402-14.638 91.062 22.4 137.709 36.235 48.348 14.339 109.005 6.55 140.173 46.178 31.274 39.762 7.659 97.145 12.176 147.522z" fill="url(#paint0_linear)"/><path opacity=".15" d="M302 450c157.953 0 286-5.82 286-13s-128.047-13-286-13-286 5.82-286 13 128.047 13 286 13z" fill="#511414"/><path d="M539 368H65v70h474v-70z" fill="url(#paint1_linear)"/><path d="M392.619 311H211.381c-2.42 0-4.381 1.864-4.381 4.164v3.672c0 2.3 1.961 4.164 4.381 4.164h181.238c2.42 0 4.381-1.864 4.381-4.164v-3.672c0-2.3-1.961-4.164-4.381-4.164z" fill="url(#paint2_linear)"/><path d="M541.602 368H62.399c-2.43 0-4.399 1.864-4.399 4.164v3.672c0 2.3 1.97 4.164 4.398 4.164h479.204c2.429 0 4.398-1.864 4.398-4.164v-3.672c0-2.3-1.969-4.164-4.398-4.164z" fill="url(#paint3_linear)"/><path opacity=".35" fill-rule="evenodd" clip-rule="evenodd" d="M65 380v2.54h93.345L213.398 438v-55.46H539V380H65z" fill="#000"/><path d="M391 323H213v115h178V323z" fill="url(#paint4_linear)"/><path opacity=".35" d="M391 323H213v3h178v-3z" fill="#000"/><path opacity=".15" fill-rule="evenodd" clip-rule="evenodd" d="M279 326.135h111.333V438L279 326.135zM279 311h113.636c1.158 0 2.268.462 3.086 1.284a4.4 4.4 0 011.278 3.101v3.867a4.415 4.415 0 01-1.282 3.097 4.373 4.373 0 01-3.082 1.289H279V311zm206 72.209h54.378V438L485 383.209zM485 368h56.626a4.374 4.374 0 013.088 1.295 4.438 4.438 0 011.286 3.112v3.886a4.425 4.425 0 01-1.281 3.116 4.36 4.36 0 01-3.093 1.29H485V368z" fill="#fff"/><path d="M187.969 326H91.031c-2.779 0-5.031 2.239-5.031 5.001v31.998c0 2.762 2.252 5.001 5.03 5.001h96.939c2.779 0 5.031-2.239 5.031-5.001v-31.998c0-2.762-2.252-5.001-5.031-5.001z" fill="#644123"/><path d="M167 326h-14v42h14v-42z" fill="#78502D"/><path d="M177 334h-75v24h75v-24z" fill="#BEC3C8"/><path d="M158 334h-10v24h10v-24z" fill="#EBF0F5"/><path fill-rule="evenodd" clip-rule="evenodd" d="M188.452 198.564a4.356 4.356 0 01-2.945-1.36 4.467 4.467 0 01-1.22-3.036 4.474 4.474 0 011.168-3.058 4.363 4.363 0 012.921-1.411c2.001 0 4.428-.184 6.839-.353 6.065-.4 12.13-.799 16.604.937 6.474 2.489 9.446 7.836 5.201 19.174-3.928 10.463-14.102 23.83-25.248 34.217-10.614 9.833-22.335 17.177-31.085 17.315a4.33 4.33 0 01-3.274-1.164 4.435 4.435 0 01-1.034-1.458 4.508 4.508 0 01-.042-3.516c.23-.558.57-1.063.999-1.483.428-.42.938-.747 1.496-.961a4.335 4.335 0 011.749-.283c6.414-.108 16.074-6.468 25.247-14.996 10.266-9.556 19.546-21.617 22.988-30.728 1.896-5.086 1.517-7.129-.091-7.682-2.76-1.076-7.839-.722-12.949-.384-2.381.046-4.777.215-7.324.23zm-99.419-8.758a4.467 4.467 0 013.316 1.202 4.438 4.438 0 011.033 4.99 4.438 4.438 0 01-2.567 2.414 4.467 4.467 0 01-1.782.26c-2.588 0-5.022-.185-7.44-.338-5.191-.338-10.352-.692-13.155.384-1.54.599-2.018 2.642-.093 7.682 3.497 9.218 12.924 21.233 23.353 30.728 9.243 8.528 19.132 14.888 25.648 14.996a4.467 4.467 0 013.297 1.244 4.429 4.429 0 01.972 4.999 4.437 4.437 0 01-2.593 2.383c-.572.2-1.179.281-1.784.239-8.888-.138-20.826-7.482-31.578-17.315C74.338 233.287 64 219.92 60.012 209.457c-4.313-11.338-1.294-16.67 5.283-19.174 4.622-1.736 10.783-1.337 16.945-.937 2.31.276 4.775.43 6.793.46z" fill="#BEC3C8"/><path fill-rule="evenodd" clip-rule="evenodd" d="M133.742 258c-.863 20.261-2.424 42.767-16.666 53.614C110.394 316.54 101 315.137 101 326h77c0-10.91-9.409-9.46-16.076-14.386-14.333-10.909-15.879-33.337-16.742-53.614h-11.44z" fill="#91969B"/><path fill-rule="evenodd" clip-rule="evenodd" d="M176.33 318.846c-2.969-4.418-9.675-4.554-14.797-8.153-11.691-8.487-14.998-24.293-16.305-40.432-2.292.364-8.922-1.412-8.922 1.169 0 6.954-.323 13.756-.984 20.026-1.016 9.566-3.169 16.064-10.091 22.942-2.523 2.52-2.015 4.297 9.721 4.433 15.736.198 33.841.167 38.071.167 9.552 0 2.215-.045 3.307-.152z" fill="#BEC3C8"/><path fill-rule="evenodd" clip-rule="evenodd" d="M144.047 275.993c-.185 0-1.538-1.866-1.768-.482-.569 2.892-.108 10.885 0 16.203.184 7.774 0 19.405 5.582 22.142 5.582 2.737 17.638 3.11 13.163-.389a42.778 42.778 0 01-13.486-17.322c-3.491-7.899-2.814-19.997-3.491-20.152z" fill="#EBF0F5"/><path fill-rule="evenodd" clip-rule="evenodd" d="M89.906 178.264a4.152 4.152 0 00-2.75 1.233A4.025 4.025 0 0086 182.245C87.538 235.488 120.031 278 139.008 278c18.976 0 51.439-42.512 52.992-95.755a4.007 4.007 0 00-1.152-2.752 4.14 4.14 0 00-2.754-1.229 370.845 370.845 0 00-98.188 0z" fill="#91969B"/><path fill-rule="evenodd" clip-rule="evenodd" d="M147.586 275.98c18.847-9.772 43.15-47.763 44.414-93.703a4.026 4.026 0 00-1.155-2.763 4.146 4.146 0 00-2.759-1.234A377.565 377.565 0 00102 176.761c4.176 40.788 21.329 100.495 45.586 99.219z" fill="#BEC3C8"/><path fill-rule="evenodd" clip-rule="evenodd" d="M187 177.802A396.648 396.648 0 00170.303 176c0 4.473-.137 10.55-.683 20.473-1.685 31.404-12.492 54.03-7.149 55.465 5.343 1.435 14.754-22.335 21.023-53.099 1.396-7.373 2.641-14.473 3.506-21.037z" fill="#EBF0F5"/><path fill-rule="evenodd" clip-rule="evenodd" d="M127.363 207.827a39.957 39.957 0 013.02-1.537c.981-.445 1.887-.875 2.777-1.229.979-.365 1.99-.633 3.019-.799a22.096 22.096 0 013.427-.261c1.591-.02 3.173.235 4.68.753a11.856 11.856 0 013.895 2.259 9.78 9.78 0 012.642 3.641c.594 1.514.886 3.133.86 4.763a15.415 15.415 0 01-.468 3.903 12.71 12.71 0 01-1.51 3.396 30.076 30.076 0 01-2.43 3.349 69.794 69.794 0 01-3.593 4.01l-4.121 3.903h11.82c.164 0 .322.067.438.185a.635.635 0 01.181.445v5.762a.635.635 0 01-.181.445.611.611 0 01-.438.185H128.42a.61.61 0 01-.437-.185.631.631 0 01-.182-.445v-5.224c0-.094.02-.187.059-.272a.625.625 0 01.168-.22l2.672-2.489c2.128-1.905 3.909-3.534 5.344-4.932 1.434-1.398 2.581-2.551 3.381-3.473.8-.921 1.781-2.151 2.415-2.996.485-.643.924-1.321 1.314-2.028a6.716 6.716 0 00.573-1.536 7.328 7.328 0 00.197-1.752 3.988 3.988 0 00-.302-1.537 3.06 3.06 0 00-.876-1.152 4.233 4.233 0 00-1.509-.768 9.395 9.395 0 00-2.355-.261 10.479 10.479 0 00-2.008.169 9.828 9.828 0 00-1.812.491c-.588.231-1.132.461-1.615.692-.483.23-.936.476-1.343.722l-1.087.63a6.777 6.777 0 01-.755.384.624.624 0 01-.815-.323l-2.37-5.777a.641.641 0 01-.045-.508.636.636 0 01.331-.383z" fill="#91969B"/><path fill-rule="evenodd" clip-rule="evenodd" d="M127.408 205.924a29.724 29.724 0 013.014-1.576 40.607 40.607 0 012.773-1.244 14.355 14.355 0 013.013-.835 21.43 21.43 0 013.421-.268c1.587-.02 3.167.241 4.671.772a12.035 12.035 0 013.888 2.316 10.212 10.212 0 012.637 3.749c.591 1.548.883 3.202.859 4.868.01 1.35-.147 2.695-.468 4.002a13.315 13.315 0 01-1.506 3.497 34.258 34.258 0 01-2.426 3.435 71.29 71.29 0 01-3.587 4.112l-4.113 4.001h11.798c.164 0 .321.068.437.189a.662.662 0 01.181.457v5.955a.662.662 0 01-.181.457.605.605 0 01-.437.189h-22.919a.605.605 0 01-.437-.189.662.662 0 01-.181-.457v-5.404a.666.666 0 01.226-.504l2.668-2.552c2.129-1.943 3.907-3.629 5.334-5.057a41.931 41.931 0 003.375-3.56 55.786 55.786 0 002.411-3.072c.479-.658.917-1.347 1.311-2.064a6.52 6.52 0 00.573-1.576c.136-.582.202-1.18.195-1.78a4.17 4.17 0 00-.301-1.575 3.25 3.25 0 00-.874-1.182 3.96 3.96 0 00-1.507-.772 8.48 8.48 0 00-2.35-.283 11.527 11.527 0 00-2.005.173 8.564 8.564 0 00-1.808.52c-.587.236-1.13.488-1.612.725a15.57 15.57 0 00-1.341.724c-.407.252-.784.489-1.085.646-.301.158-.573.315-.753.41a.61.61 0 01-.474-.002.642.642 0 01-.34-.345l-2.366-5.923a.664.664 0 01-.096-.565.635.635 0 01.144-.254.592.592 0 01.238-.158zM135.142 319c2.169-2.822 3.235-6.223 3.028-9.66-.207-3.437-1.675-6.712-4.17-9.302 3.106 1.973 6.85 2.943 10.634 2.755 3.784-.188 7.389-1.524 10.24-3.793-2.175 2.821-3.246 6.225-3.042 9.665.204 3.441 1.672 6.719 4.168 9.312-3.1-1.979-6.841-2.954-10.624-2.769-3.782.186-7.386 1.521-10.234 3.792zm24.094-110A18.44 18.44 0 00158 186.251 18.53 18.53 0 00180.764 185 18.533 18.533 0 00182 207.764 18.533 18.533 0 00159.236 209z" fill="#fff"/><path d="M512.969 326h-96.938c-2.779 0-5.031 2.239-5.031 5.001v31.998c0 2.762 2.252 5.001 5.031 5.001h96.938c2.779 0 5.031-2.239 5.031-5.001v-31.998c0-2.762-2.252-5.001-5.031-5.001z" fill="#644123"/><path d="M493 326h-13v42h13v-42z" fill="#78502D"/><path d="M502 334h-75v24h75v-24z" fill="#FF8D1B"/><path d="M485 334h-10v24h10v-24z" fill="#F5B98C"/><path fill-rule="evenodd" clip-rule="evenodd" d="M514.648 198.566a4.512 4.512 0 01-3.015-1.361 4.419 4.419 0 01-1.25-3.036 4.42 4.42 0 011.197-3.058 4.506 4.506 0 012.99-1.412c2.034 0 4.518-.184 7.002-.353 6.211-.4 12.421-.799 17.078.937 6.614 2.489 9.673 7.837 5.326 19.177-4.021 10.465-14.439 23.834-25.866 34.222-10.868 9.834-22.853 17.18-31.827 17.318a4.504 4.504 0 01-3.021-1.349 4.42 4.42 0 01-1.262-3.033 4.418 4.418 0 011.187-3.064 4.509 4.509 0 012.987-1.421c6.583-.107 16.473-6.469 25.85-14.997 10.527-9.558 20.013-21.621 23.537-30.733 1.956-5.087 1.552-7.131-.078-7.684-2.825-1.075-8.026-.722-13.274-.384-2.515.046-4.953.215-7.561.231zm-99.096-8.76a4.332 4.332 0 011.754.26 4.374 4.374 0 011.509.942c.435.415.781.916 1.018 1.472a4.498 4.498 0 010 3.518 4.438 4.438 0 01-1.018 1.472 4.36 4.36 0 01-3.263 1.202c-2.547 0-4.943-.185-7.323-.338-5.11-.338-10.204-.692-12.964.384-1.516.599-1.986 2.642-.076 7.682 3.442 9.218 12.721 21.233 22.986 30.728 9.097 8.528 18.831 14.888 25.244 14.996a4.34 4.34 0 013.246 1.244 4.459 4.459 0 011.335 3.246 4.518 4.518 0 01-.379 1.753 4.435 4.435 0 01-1.034 1.458 4.334 4.334 0 01-3.274 1.164c-8.763-.138-20.514-7.482-31.082-17.315-11.159-10.387-21.332-23.754-25.244-34.217-4.261-11.338-1.274-16.67 5.2-19.174 4.549-1.736 10.538-1.337 16.587-.937 2.426.276 4.792.43 6.778.46z" fill="#DD8228"/><path fill-rule="evenodd" clip-rule="evenodd" d="M458.751 258c-.848 20.261-2.408 42.767-16.663 53.614C435.407 316.54 426 315.137 426 326h77c0-10.91-9.407-9.46-16.088-14.386-14.315-10.909-15.875-33.337-16.663-53.614h-11.498z" fill="#CA6023"/><path fill-rule="evenodd" clip-rule="evenodd" d="M503.337 318.846c-2.969-4.418-9.676-4.554-14.813-8.153-11.675-8.487-14.997-24.293-16.289-40.432-2.308.364-8.922-1.412-8.937 1.169a197.829 197.829 0 01-.969 20.026c-1.016 9.566-3.169 16.064-10.091 22.942-2.538 2.52-2.015 4.297 9.706 4.433 15.751.198 33.84.167 38.086.167 9.536 0 2.215-.045 3.307-.152z" fill="#FF8D1B"/><path fill-rule="evenodd" clip-rule="evenodd" d="M470.058 275.993c-.2 0-1.537-1.866-1.783-.482-.569 2.892-.093 10.885 0 16.203.2 7.774 0 19.405 5.596 22.142 5.597 2.737 17.636 3.11 13.147-.389a42.891 42.891 0 01-13.393-17.322c-3.567-7.899-2.89-19.997-3.567-20.152z" fill="#F5B98C"/><path fill-rule="evenodd" clip-rule="evenodd" d="M415.921 178.264a4.18 4.18 0 00-2.751 1.236 4.052 4.052 0 00-1.17 2.745C413.538 235.488 446.026 278 465 278c18.974 0 51.447-42.512 53-95.755a4.024 4.024 0 00-1.156-2.748 4.15 4.15 0 00-2.749-1.233 370.74 370.74 0 00-98.174 0z" fill="#CA6023"/><path fill-rule="evenodd" clip-rule="evenodd" d="M474.087 275.98c18.635-9.772 42.587-47.763 43.913-93.703a4.066 4.066 0 00-1.146-2.759 4.087 4.087 0 00-2.724-1.237 369.2 369.2 0 00-85.13-1.52c4.144 40.788 21.103 100.495 45.087 99.219z" fill="#FF8D1B"/><path fill-rule="evenodd" clip-rule="evenodd" d="M513 177.802A403.907 403.907 0 00496.304 176c0 4.473-.152 10.55-.683 20.473-1.7 31.404-12.492 54.03-7.149 55.465 5.343 1.435 14.753-22.335 21.007-53.099 1.472-7.373 2.656-14.473 3.521-21.037z" fill="#F5B98C"/><path fill-rule="evenodd" clip-rule="evenodd" d="M466.874 204.001c1.613-.019 3.22.203 4.768.66a10.446 10.446 0 013.721 2.024 8.874 8.874 0 012.392 3.238c.543 1.331.812 2.759.792 4.197a9.704 9.704 0 01-.374 2.743 8.216 8.216 0 01-1.121 2.444 9.94 9.94 0 01-1.689 2.009 7.591 7.591 0 01-1.016.824 14.55 14.55 0 011.599.825 9.572 9.572 0 012.182 1.814 7.094 7.094 0 011.405 2.533c.325 1.038.481 2.121.463 3.208a10.521 10.521 0 01-.881 4.498 8.414 8.414 0 01-2.646 3.328 12.034 12.034 0 01-4.02 1.993c-1.65.455-3.356.677-5.067.66a27.034 27.034 0 01-3.168-.18 23.525 23.525 0 01-2.99-.569c-.971-.25-1.929-.55-2.869-.9a43.818 43.818 0 01-2.989-1.229.614.614 0 01-.314-.81l2.032-5.651a.604.604 0 01.309-.354.588.588 0 01.469-.021c1.076.465 2.032.869 2.869 1.199.837.33 1.584.6 2.197.795.604.202 1.224.353 1.854.449.657.105 1.322.155 1.987.15a8.11 8.11 0 004.394-.944 2.997 2.997 0 001.301-2.654 4.065 4.065 0 00-.479-2.038 3.336 3.336 0 00-1.389-1.29 9.383 9.383 0 00-2.721-.809 27.632 27.632 0 00-4.185-.27h-.582a.614.614 0 01-.613-.615v-5.591a.615.615 0 01.613-.615 19.472 19.472 0 003.945-.33 5.611 5.611 0 002.302-.929 3.848 3.848 0 001.166-1.409 4.294 4.294 0 00.388-1.904 3.317 3.317 0 00-.284-1.499 2.145 2.145 0 00-.837-.915 5.21 5.21 0 00-1.39-.599 6.98 6.98 0 00-1.629-.195 12.76 12.76 0 00-3.557.599 33.626 33.626 0 00-4.768 1.829.607.607 0 01-.464.017.622.622 0 01-.343-.316l-2.286-5.757a.614.614 0 01.313-.78 33.047 33.047 0 015.785-2.143 20.706 20.706 0 015.425-.72z" fill="#A53C00"/><path fill-rule="evenodd" clip-rule="evenodd" d="M466.874 202.001c1.613-.02 3.22.209 4.768.678a10.127 10.127 0 013.722 2.095 8.91 8.91 0 012.391 3.311c.543 1.368.813 2.835.792 4.313.008.953-.118 1.902-.373 2.818a8.867 8.867 0 01-1.121 2.526 10.154 10.154 0 01-1.689 2.064c-.323.303-.662.586-1.017.847.552.237 1.087.515 1.6.832a10.078 10.078 0 012.182 1.864 7.141 7.141 0 011.405 2.587c.323 1.066.48 2.179.463 3.296a11.199 11.199 0 01-.882 4.621 8.817 8.817 0 01-2.645 3.419 11.923 11.923 0 01-4.021 2.049 17.448 17.448 0 01-5.067.677 26.227 26.227 0 01-3.169-.185 22.86 22.86 0 01-2.989-.569 32.595 32.595 0 01-2.87-.94 43.305 43.305 0 01-2.989-1.263.6.6 0 01-.323-.34.637.637 0 01.009-.476l2.033-5.822a.636.636 0 01.314-.352.606.606 0 01.463-.033c1.076.477 2.033.893 2.87 1.232a34.77 34.77 0 002.197.816c.602.216 1.222.37 1.853.462.658.107 1.323.159 1.988.154a7.934 7.934 0 004.395-.97c.426-.3.771-.709.999-1.187a3.16 3.16 0 00.301-1.539 4.223 4.223 0 00-.478-2.08 3.323 3.323 0 00-1.39-1.34 9.203 9.203 0 00-2.721-.816 25.164 25.164 0 00-4.185-.293h-.583a.605.605 0 01-.433-.184.645.645 0 01-.18-.447v-5.73a.64.64 0 01.18-.446.602.602 0 01.433-.185 18.87 18.87 0 003.946-.354 5.546 5.546 0 002.302-.94c.499-.375.9-.873 1.166-1.448a4.527 4.527 0 00.389-1.956 3.609 3.609 0 00-.284-1.54 2.278 2.278 0 00-.837-.939 5.062 5.062 0 00-1.391-.601 6.141 6.141 0 00-1.629-.216 13.016 13.016 0 00-3.557.616 34.992 34.992 0 00-4.768 1.879.592.592 0 01-.465.017.619.619 0 01-.342-.325l-2.287-5.899a.63.63 0 01-.002-.466.61.61 0 01.316-.335 31.4 31.4 0 015.784-2.217 20.878 20.878 0 015.426-.74zM488.236 211A18.544 18.544 0 00487 188.236 18.544 18.544 0 00509.764 187 18.45 18.45 0 00511 209.764 18.544 18.544 0 00488.236 211zm-24.355 106c1.677-2.257 2.501-4.978 2.341-7.728-.16-2.75-1.294-5.371-3.222-7.442 2.399 1.578 5.29 2.353 8.211 2.203 2.922-.151 5.705-1.218 7.908-3.033-1.683 2.257-2.511 4.982-2.351 7.736.16 2.754 1.298 5.378 3.232 7.448-2.395-1.584-5.286-2.365-8.209-2.217-2.923.148-5.708 1.216-7.91 3.033z" fill="#FFF5EE"/><path d="M362.689 257H241.311c-3.486 0-6.311 2.884-6.311 6.441v41.118c0 3.557 2.825 6.441 6.311 6.441h121.378c3.486 0 6.311-2.884 6.311-6.441v-41.118c0-3.557-2.825-6.441-6.311-6.441z" fill="#644123"/><path d="M336 257h-16v54h16v-54z" fill="#78502D"/><path d="M349 270h-94v28h94v-28z" fill="#FFCF2F"/><path d="M326 270h-12v28h12v-28z" fill="#FFE173"/><path fill-rule="evenodd" clip-rule="evenodd" d="M364.03 99.828a5.42 5.42 0 01-3.863-1.576 5.508 5.508 0 01-1.627-3.867 5.51 5.51 0 011.563-3.894 5.422 5.422 0 013.836-1.64c2.472 0 5.49-.214 8.493-.413 7.583-.504 15.014-1.009 20.64 1.162 8.038 3.058 11.754 9.677 6.461 23.696-4.868 12.933-17.517 29.474-31.393 42.301-13.133 12.23-27.738 21.265-38.627 21.403a5.425 5.425 0 01-3.87-1.559 5.519 5.519 0 01-.096-7.762 5.423 5.423 0 013.83-1.656c7.977-.122 19.988-7.995 31.392-18.544 12.755-11.817 24.265-26.723 28.557-38.081 2.381-6.284 1.835-8.806-.091-9.555-3.427-1.315-9.751-.887-16.121-.474-2.927.29-5.884.459-9.084.459zM239.975 88.82c1.444 0 2.829.579 3.85 1.608a5.511 5.511 0 011.595 3.88 5.511 5.511 0 01-1.595 3.881 5.423 5.423 0 01-3.85 1.608c-3.169 0-6.142-.23-9.1-.428-6.354-.413-12.679-.841-16.106.474-1.942.749-2.473 3.271-.107 9.555 4.277 11.358 15.819 26.264 28.574 38.081 11.39 10.549 23.402 18.422 31.38 18.544a5.422 5.422 0 013.832 1.651 5.512 5.512 0 011.552 3.899 5.505 5.505 0 01-1.638 3.862 5.423 5.423 0 01-3.868 1.565c-10.889-.169-25.495-9.265-38.644-21.403-13.862-12.826-26.511-29.368-31.379-42.301-5.294-14.019-1.593-20.623 6.461-23.696 5.626-2.17 13.103-1.666 20.626-1.162 2.927.168 5.945.367 8.417.382z" fill="#FFCF2F"/><path fill-rule="evenodd" clip-rule="evenodd" d="M294.917 175c-1.064 24.455-3.04 51.571-20.869 64.668C265.734 245.612 254 243.918 254 257h96c0-13.082-11.719-11.388-20.048-17.332-17.844-13.097-19.759-40.213-20.854-64.668h-14.181z" fill="#EBAE2B"/><path fill-rule="evenodd" clip-rule="evenodd" d="M348.021 250.798c-3.618-5.596-11.821-5.719-18.163-10.31-14.273-10.743-18.329-30.745-19.933-51.149-2.8.448-10.898-1.794-10.913 1.468 0 8.795-.379 17.405-1.196 25.335-1.241 12.103-3.875 20.327-12.335 29.045-3.027 3.169-2.467 5.425 11.881 5.595 19.253.248 41.366.217 46.557.217 11.67 0 2.694-.062 4.102-.201z" fill="#FFCF2F"/><path fill-rule="evenodd" clip-rule="evenodd" d="M308.458 196.207c-.222 0-1.796-2.274-2.123-.58-.682 3.526-.133 13.294 0 19.75.238 9.554 0 23.672 6.711 27.03 6.71 3.358 21.154 3.724 15.78-.504-7.095-5.463-12.67-12.748-16.166-21.123-4.202-9.57-3.385-24.39-4.202-24.573z" fill="#FFE173"/><path fill-rule="evenodd" clip-rule="evenodd" d="M241.81 74.127a5.056 5.056 0 00-3.373 1.552A5.187 5.187 0 00237 79.14c1.912 67.2 41.74 120.86 65 120.86 23.26 0 63.088-53.66 65-120.862a5.168 5.168 0 00-1.433-3.463 5.04 5.04 0 00-3.377-1.548c-41.512-5.441-81.675-5.564-120.38 0z" fill="#EBAE2B"/><path fill-rule="evenodd" clip-rule="evenodd" d="M312.705 195.976C335.753 183.77 365.348 136.369 367 79.05a5.113 5.113 0 00-1.431-3.437 5.046 5.046 0 00-3.373-1.537A451.427 451.427 0 00257 72.216c5.107 50.849 26.079 125.331 55.705 123.76z" fill="#FFCF2F"/><path fill-rule="evenodd" clip-rule="evenodd" d="M362 75.21A502.507 502.507 0 00340.798 73c0 5.472-.186 12.9-.868 25.047-2.152 38.443-15.843 66.151-9.06 67.88 6.784 1.729 18.694-27.333 26.639-64.978 1.905-9.02 3.407-17.71 4.491-25.739z" fill="#FFE173"/><path fill-rule="evenodd" clip-rule="evenodd" d="M316 144.759v6.379a.858.858 0 01-.255.609.874.874 0 01-.616.253h-23.511a.86.86 0 01-.333-.066.867.867 0 01-.538-.796v-6.379a.867.867 0 01.538-.796.86.86 0 01.333-.066h6.996v-26.435l-5.765 2.29a.882.882 0 01-.662-.009.866.866 0 01-.464-.467l-2.642-5.947a.844.844 0 01.42-1.13l8.873-4.178a.848.848 0 01.375 0h8.873c.231 0 .453.091.616.253a.858.858 0 01.255.609v35.029h6.636c.229 0 .448.089.611.247a.858.858 0 01.26.6z" fill="#EBA50F"/><path fill-rule="evenodd" clip-rule="evenodd" d="M316 143.427v6.671a.92.92 0 01-.255.638.856.856 0 01-.616.264h-23.512a.859.859 0 01-.616-.264.925.925 0 01-.255-.638v-6.671a.93.93 0 01.255-.638.851.851 0 01.616-.264h6.997v-27.65l-5.766 2.395a.83.83 0 01-.664-.004.842.842 0 01-.279-.198.913.913 0 01-.183-.296l-2.642-6.143a.89.89 0 01.149-.967.853.853 0 01.271-.199l8.873-4.385a1.08 1.08 0 01.376-.078h8.873c.231 0 .453.095.616.264a.92.92 0 01.255.638v36.623h6.636c.231 0 .453.095.616.264a.919.919 0 01.255.638zM299.08 243a16.15 16.15 0 00-1.08-19.921A16.159 16.159 0 00317.92 222a16.133 16.133 0 001.08 19.906A16.181 16.181 0 00299.08 243zm37.269-125c2.564-3.53 3.824-7.784 3.579-12.082-.244-4.299-1.979-8.396-4.928-11.636 3.667 2.472 8.091 3.69 12.564 3.457 4.472-.233 8.733-1.901 12.102-4.739-2.571 3.526-3.836 7.78-3.595 12.08.242 4.301 1.978 8.398 4.929 11.638-3.661-2.481-8.085-3.704-12.557-3.471-4.472.232-8.733 1.907-12.094 4.753z" fill="#FFFEF3"/></g><defs><linearGradient id="paint0_linear" x1="577" y1="0" x2="558.159" y2="500.124" gradientUnits="userSpaceOnUse"><stop stop-color="#16A05D"/><stop offset="1" stop-color="#20BD71"/></linearGradient><linearGradient id="paint1_linear" x1="139.711" y1="381.506" x2="144.457" y2="447.253" gradientUnits="userSpaceOnUse"><stop stop-color="#15CF74"/><stop offset="1" stop-color="#1C8753"/></linearGradient><linearGradient id="paint2_linear" x1="236.947" y1="313.315" x2="237.297" y2="324.634" gradientUnits="userSpaceOnUse"><stop stop-color="#15CF74"/><stop offset="1" stop-color="#1C8753"/></linearGradient><linearGradient id="paint3_linear" x1="134.917" y1="370.315" x2="135.054" y2="381.643" gradientUnits="userSpaceOnUse"><stop stop-color="#15CF74"/><stop offset="1" stop-color="#1C8753"/></linearGradient><linearGradient id="paint4_linear" x1="241.056" y1="345.188" x2="272.233" y2="443.919" gradientUnits="userSpaceOnUse"><stop stop-color="#15CF74"/><stop offset="1" stop-color="#1C8753"/></linearGradient><clipPath id="clip0"><path fill="#fff" d="M0 0h600v480H0z"/></clipPath></defs></svg>