<svg width="600" height="480" fill="none" xmlns="http://www.w3.org/2000/svg"><g clip-path="url(#clip0)"><path fill="#fff" d="M0 0h600v480H0z"/><path opacity=".2" fill-rule="evenodd" clip-rule="evenodd" d="M274.238 50.89c36.836 7.024 71.095 17.835 103.31 37.029 35.441 21.115 69.281 44.089 91.347 78.946 27.495 43.433 57.125 91.614 48.731 142.329-8.812 53.247-46.919 99.92-93.372 127.398-44.387 26.257-98.758 22.261-150.016 16.576-46.237-5.129-91.183-18.476-127.64-47.374-35.382-28.047-59.34-67.477-71.946-110.832-12.306-42.325-8.445-86.21 2.222-128.977C88.28 120.253 96.982 65.925 137.697 42.18c40.385-23.55 90.619-.047 136.541 8.71z" fill="url(#paint0_linear)"/><path d="M232.856 212.162c-15.525 35.346-12.235 59.599-18.828 80.304-6.378 20.096-20.422 25.286-29.327 26.479-4.357.583-7.432-3.361-6.892-7.724a571.094 571.094 0 004.108-54.305 35.655 35.655 0 0121.14-31.431l29.799-13.323z" fill="#FC9F86"/><path d="M201.861 257.392c9.217-21.48 9.04-47.405 26.237-82.152a172.71 172.71 0 014.758-9.054l-10.468 3.521-25.693 8.605a40.4 40.4 0 00-5.792 2.447v93.096a50.03 50.03 0 0010.958-16.463z" fill="#FC9F86"/><path d="M190.903 180.759v93.096c-9.537 9.263-20.643 11.031-27.823 11.01-4.251-.013-6.903-4.016-6.118-8.194l.036-.192c1.618-8.551 4.323-22.934 6.797-36.026 2.325-12.738 4.378-24.253 4.854-28.005a41.595 41.595 0 0122.254-31.689z" fill="#FFBDA6"/><path d="M213.878 120.616a516.408 516.408 0 0040.009-19.032c1.632-.857 3.263-1.754 4.881-2.638a557.551 557.551 0 01-15.77-10.318 600.959 600.959 0 01-26.55-19.032c-1.197-.884-2.325-1.768-3.467-2.624-6.022-4.582-15.104-12.031-22.078-17.81v51.062c4.405 4.255 9.272 8.388 14.451 12.861 2.76 2.365 5.615 4.812 8.524 7.531z" fill="#FC9F86"/><path d="M186.929 45.864c-3.358-2.787-8.297-2.37-10.281 1.517-4.487 8.794-8.989 25.472 6.288 44.279a96.053 96.053 0 007.967 8.551V49.136a637.405 637.405 0 01-3.974-3.272zm3.322 84.269c-9.783 3.727-26.751 9.414-36.459 12.624-4.11 1.359-6.33 5.734-4.115 9.453 5.048 8.475 16.789 21.239 40.887 18.272h.299v-40.58l-.612.231z" fill="#FFBDA6"/><path d="M237.193 145.562a191.372 191.372 0 00-23.315-24.946l-.544.231a641.15 641.15 0 01-22.431 9.082v40.525c15.172-1.944 29.908-8.483 49.689-13.173 1.359-.34 2.868-.653 4.323-.965a180.964 180.964 0 00-7.695-10.726l-.027-.028z" fill="#FC9F86"/><path d="M441.425 433.578c-4.962 38.881-84.287 60.7-117.974 35.468-20.542-15.362-22.54-74.104-48.941-86.761-26.401-12.656-40.947-35.346-47.581-48.301a84.452 84.452 0 01-4.337-9.843l6.063-.611c22.962-2.257 105.617-9.517 152.464-3.127 4.201.557 8.157 1.264 11.651 2.053 13.295 3.031 21.602 7.803 21.357 14.954-1.264 34.217 32.491 55.588 27.298 96.168z" fill="#FFBDA6"/><path d="M293.271 50.387c32.477 0 62.154 16.748 84.871 44.413V26.814A16.315 16.315 0 00361.828 10.5H224.727a16.315 16.315 0 00-16.314 16.314v67.973c22.703-27.652 52.38-44.4 84.858-44.4z" fill="#F6FDFF"/><path d="M378.142 92.53v206.094a17.265 17.265 0 01-17.197 15.81H225.678a17.267 17.267 0 01-17.265-17.265V92.529a136.449 136.449 0 0127.475-25.653 108.297 108.297 0 0123.287-12.398 61.867 61.867 0 013.467-1.237 94.28 94.28 0 0130.629-5.125 96.517 96.517 0 0143.135 10.318 92.71 92.71 0 014.718 2.488l.598.326c1.359.803 2.8 1.618 4.173 2.502a59.987 59.987 0 012.869 1.849 134.923 134.923 0 0129.378 26.93z" fill="#D2F1E2"/><path opacity=".2" fill-rule="evenodd" clip-rule="evenodd" d="M221.472 181.986c2.593-13.689 6.583-26.42 13.668-38.392 7.794-13.17 16.273-25.746 29.139-33.946 16.032-10.218 33.815-21.229 52.534-18.11 19.654 3.275 36.881 17.437 47.024 34.699 9.691 16.495 8.216 36.701 6.118 55.749-1.893 17.183-6.82 33.886-17.486 47.434-10.352 13.149-24.906 22.052-40.909 26.736-15.622 4.573-31.82 3.139-47.606-.825-16.879-4.239-36.932-7.473-45.696-22.604-8.693-15.007-.018-33.675 3.214-50.741z" fill="url(#paint1_linear)"/><path fill-rule="evenodd" clip-rule="evenodd" d="M356.163 132.539a.988.988 0 01.581 1.552c-2.07 2.785-4.141 5.255-6.211 7.725 2.272 0 4.847.301 7.482.422.821.037 1.29.983.793 1.637-12.94 17.05-27.244 29.214-43.775 36.063-17.986 28.71-22.72 27.768-18.46 6.119-14.2 2.824-29.346 2.353-45.44-1.412-6.343 7.883-11.69 12.466-18.821 16.235-1.579.835-3.263-.746-2.619-2.412l5.347-13.823c-4.277-1.772-8.555-3.811-12.832-5.715-1.595-.71-1.644-3.029-.05-3.741 5.312-2.37 11.499-4.427 18.562-1.84 9.94-9.413 6.627-10.354 19.407-18.826-1.42-1.412.473-8.942 1.893-10.354 8.52-9.883 18.933-17.414 26.507-20.238 7.1-2.824 17.986 1.412 21.773 4.236 16.074-2.283 29.921.751 45.863 4.372zm-39.71.805c-.946 8.943 1.42 22.121 14.2 32.475-14.673-4.236-22.246-14.12-14.2-32.475zm25.087 9.413c-1.42 1.883-3.787 2.353-5.68.941-1.893-1.411-2.367-4.235-.947-6.118s3.787-2.353 5.68-.941c1.894 1.412 2.367 4.236.947 6.118z" fill="url(#paint2_linear)"/><path d="M381.146 320.457a17.17 17.17 0 01-11.269 4.201H234.678a16.81 16.81 0 01-5.995-1.074l-6.063.612a84.37 84.37 0 004.336 9.856c2.001.5 4.056.751 6.118.747h138.42a24.589 24.589 0 0021.303-12.235c-3.548-.897-7.45-1.604-11.651-2.107z" fill="#FC9F86"/><path d="M362.494.644H224.06a24.647 24.647 0 00-24.647 24.633V299.97a24.647 24.647 0 0024.647 24.647h138.434a24.647 24.647 0 0024.647-24.647V25.277A24.648 24.648 0 00362.494.644zm15.647 58.878v237.702a17.275 17.275 0 01-17.265 17.265H225.678a17.262 17.262 0 01-17.265-17.265V27.072a16.31 16.31 0 0116.313-16.314h137.102a16.311 16.311 0 0116.313 16.314v32.45z" fill="#2C334D"/><path d="M253.493 18.602h-16.354a2.339 2.339 0 00-2.339 2.339v1.835a2.339 2.339 0 002.339 2.338h16.354a2.338 2.338 0 002.338-2.338V20.94a2.338 2.338 0 00-2.338-2.339zm-24.933 0h-4.608a2.339 2.339 0 00-2.339 2.339v1.835a2.339 2.339 0 002.339 2.338h4.608a2.338 2.338 0 002.338-2.338V20.94a2.338 2.338 0 00-2.338-2.339zm129.666 6.485a3.398 3.398 0 100-6.796 3.398 3.398 0 000 6.796zm-24.117 0a3.398 3.398 0 100-6.796 3.398 3.398 0 000 6.796zm12.058 0a3.399 3.399 0 100-6.798 3.399 3.399 0 000 6.798z" fill="#C6E1D4"/><path d="M239.028 399.497l-10.196 1.509a3.631 3.631 0 01-3.969-5.194l4.282-8.754a3.094 3.094 0 012.444-1.687 3.074 3.074 0 011.516.228c.478.202.898.521 1.219.928l6.403 8.048a3.083 3.083 0 01-.343 4.206 3.09 3.09 0 01-1.356.716zm-10.644-.789l10.209-1.495a.774.774 0 00.313-1.183l-6.403-8.048a.77.77 0 00-.666-.286.763.763 0 00-.599.408l-4.282 8.769a1.28 1.28 0 001.441 1.835h-.013z" fill="#C6F7DE"/><path d="M170.919 260.219l-1.672 12.725a4.502 4.502 0 01-4.69 3.901l-7.573-.367c1.618-8.551 4.323-22.934 6.798-36.025a22.713 22.713 0 017.137 19.766z" fill="#FFD7C9"/><path d="M313.797 288.197c8.724 0 15.797-7.072 15.797-15.797 0-8.724-7.073-15.796-15.797-15.796S298 263.676 298 272.4c0 8.725 7.073 15.797 15.797 15.797zm-41-.435c8.724 0 15.797-7.073 15.797-15.797 0-8.725-7.073-15.797-15.797-15.797S257 263.24 257 271.965c0 8.724 7.073 15.797 15.797 15.797z" fill="#F6FDFF"/><path d="M414.14 337.437l-10.291-6.227c-20.596 31.078-50.558 47.214-69.333 36.325-20.188-11.637-17.863-48.764.585-85.415a207.658 207.658 0 0119.032-30.778 107.864 107.864 0 0021.398-51.293c4.256-34.326-7.653-56.431-5.723-78.468 2.327-26.84 19.089-36.37 29.247-39.698 4.191-1.373 8.056 1.837 8.465 6.229.122.992.231 2.052.326 3.208v.544c.897 8.782 2.447 21.955 4.935 37.697.108.707.217 1.36.34 2.148.203 1.36.421 2.719.652 4.079 4.187 25.231 10.617 56.037 20.324 85.646 7.314 22.213-14.465 83.104-19.957 116.003z" fill="#FFBDA6"/><path d="M412.863 129.561a21.75 21.75 0 01-15.172-16.789l-2.583-13.595a4.487 4.487 0 013.222-5.18l9.516-2.636v.543c.979 8.742 2.529 21.915 5.017 37.657z" fill="#FFD7C9"/><path d="M280.179 266.5h-2.57a2.27 2.27 0 00-2.27-2.216h-5.071a2.258 2.258 0 00-2.256 2.216h-2.543a2.148 2.148 0 00-2.148 2.148v8.836a2.138 2.138 0 001.315 2.025c.264.11.547.166.833.164h14.751a2.15 2.15 0 002.148-2.148v-8.837a2.158 2.158 0 00-.629-1.56 2.16 2.16 0 00-1.56-.628zm-7.368 10.658a4.758 4.758 0 11-.001-9.515 4.758 4.758 0 01.001 9.515z" fill="#FF656B"/><circle cx="314" cy="272" r="7" fill="#FF656B"/><circle cx="314" cy="272" r="8.5" stroke="#FF656B"/><circle cx="338" cy="141" r="3" fill="#2C334C"/></g><defs><linearGradient id="paint0_linear" x1="67" y1="32" x2="537.695" y2="53.713" gradientUnits="userSpaceOnUse"><stop stop-color="#16A05D"/><stop offset="1" stop-color="#20BD71"/></linearGradient><linearGradient id="paint1_linear" x1="214.5" y1="259" x2="222.624" y2="84.086" gradientUnits="userSpaceOnUse"><stop stop-color="#16A05D"/><stop offset="1" stop-color="#20BD71"/></linearGradient><linearGradient id="paint2_linear" x1="240.382" y1="138.435" x2="259.714" y2="208.643" gradientUnits="userSpaceOnUse"><stop stop-color="#15CF74"/><stop offset="1" stop-color="#1C8753"/></linearGradient><clipPath id="clip0"><path fill="#fff" d="M0 0h600v480H0z"/></clipPath></defs></svg>