<svg width="600" height="480" fill="none" xmlns="http://www.w3.org/2000/svg"><g clip-path="url(#clip0)"><path fill="#fff" d="M0 0h600v480H0z"/><path opacity=".2" fill-rule="evenodd" clip-rule="evenodd" d="M33.81 217.024c-4.257-52.929 54.365-87.35 90.154-126.578 31.38-34.397 59.736-75.352 104.79-87.102 43.977-11.47 86.964 12.676 130.494 25.74 44.778 13.439 92.387 19.792 126.77 51.469 39.405 36.304 70.327 83.337 77.223 136.471 7.442 57.345 1.447 122.708-38.111 164.886-38.57 41.125-104.747 28.799-158.747 45.012-52.227 15.68-102.112 70.106-152.099 48.314-50.753-22.127-39.364-100.231-71.082-145.612-30.73-43.968-105.091-59.131-109.392-112.6z" fill="url(#paint0_linear)"/><path d="M443.104 322.552h180.861v-5.803H443.104v5.803z" fill="#1C8753"/><path d="M443.104 316.749H190.086v5.803h253.018v-5.803z" fill="#20BD71"/><path d="M225.038 470.532l18.721-25.956 9.25-7.39 7.028 8.8-33.343 26.627-1.656-2.081z" fill="#1C8753"/><path d="M292.799 470.532l18.721-25.956 9.254-7.39 7.027 8.8-33.342 26.627-1.66-2.081z" fill="#20BD71"/><path d="M397.762 260.797c-1.86-8.392-60.672-14.565-81.965-10.818-14.103 2.482-4.963 27.771-16.664 25.096-15.908-3.636-47.749-9.211-66.471-7.341-8.184.816-12.488 8.095-12.481 13.863.024 28.784 19.557 145.393 21.372 156.622 1.957 12.097 12.081 9.388 13.586.66 1.771-10.216 8.805-90.465 6.171-128.301 18.939 4.756 32.939 8.368 61.515 8.368h54.98c21.687 0 26.391-29.102 19.957-58.149z" fill="#414966"/><path d="M398.063 302.363c4.179-10.714-.107-20.897-12.896-27.305-13.154-6.567-74.599-7.925-83.967-7.144-7.969.667-10.624 4.991-10.389 11.714 1.191 33.902 17.355 146.806 18.418 157.7 1.18 12.128 13.886 8.713 15.101 1.168 3.648-22.659 5.909-97.65 5.025-127.765 8.101 4.123 24.786 8.198 36.325 8.198 14.127.017 25.327 1.531 32.383-16.566z" fill="#2C334D"/><path d="M263.902 205.318c-7.248 1.98-17.931-2.337-11.425-12.326 7.003-10.749 16.775-20.703 27.064-29.195 12.426-10.234 29.919-23.772 41.54-29.278 22.56-10.715 17.044 12.405 12.295 21.557-6.872 13.255-24.161 23.005-37.371 32.015-10.358 7.089-24.164 15.063-32.103 17.227z" fill="#15CF74"/><path d="M333.186 132.092a48.935 48.935 0 01-3.304 11.274c-6.499 14.676-23.743 26.742-36.832 37.605-10.296 8.544-24.057 18.377-32.024 21.477a13.989 13.989 0 01-8.88.405c2.595 2.72 7.717 3.58 11.769 2.474 7.912-2.163 21.728-10.137 32.1-17.226 13.196-9.01 30.499-18.76 37.371-32.015 3.565-6.878 7.562-21.602-.2-23.994z" fill="#13613B"/><path d="M398.221 262.325s-64.4 2.883-87.957-2.689c-2.547-.604-4.142-4.147-3.917-6.739.711-8.434 2.071-26.641 1.977-42.858-.103-22.567-1.58-42.513 4.239-59.981 1.933-5.8 5.402-14.257 15.794-18.56 7.401-3.066 22.367-6.913 34.786-6.159 11.797.725 21.579 4.68 26.922 7.33 14.245 7.079 13.662 13.48 14.2 21.872 1.263 19.67-4.214 47.424-5.464 72.195-1.032 20.254-.58 35.589-.58 35.589z" fill="url(#paint1_linear)"/><path d="M404.255 154.53c-.093-1.428-.149-2.81-.259-4.148a69.554 69.554 0 00-5.74-4.006c-10.79-6.805-19.764-2.765-17.258 11.545.69 3.95 3.452 9.02 4.125 12.999 1.418 8.689-.798 15.812-4.218 22.141-3.555 6.567-4.47 13.414-3.866 21.366.594 7.805 4.314 15.803 3.279 23.6-2.178 16.272-21.918 22.172-36.045 24.789l53.942-.505s-.453-15.336.569-35.6c1.256-24.761 6.731-52.515 5.471-72.181z" fill="url(#paint2_linear)"/><path d="M441.032 222.744c.569 13.21-14.725 10.317-21.656-.374-5.698-8.789-7.769-16.659-13.927-31.217-6.247-14.779-12.208-19.255-16.519-32.026-3.873-11.465-6.372-33.267 12.267-19.663 20.654 15.094 38.758 58.429 39.835 83.28z" fill="url(#paint3_linear)"/><path d="M442.27 217.528c-1.753-9.989-3.327-11.157-13.53-10.981-9.319.163-18.604 8.641-13.092 9.875 4.38.968 7.386-.871 11.435-.297 4.159.594 8.356 2.319 11.266 6.829 2.91 4.511.166 8.938 1.495 8.382 3.048-1.276 3.262-9.035 2.426-13.808zM274.415 202.23c1.823-1.856 3.404-6.643 2.158-11.06-1.726-6.1-5.523-9.449-9.982-11.924-3.656-2.029-4.722-.124-5.623 1.085-1.284 1.728-2.036 3.875-.321 6.139 2.727 3.591 5.309 9.975 3.583 13.956-1.415 3.266-4.833 3.702-4.487 4.874.617 2.156 11.114.56 14.672-3.07z" fill="#fff"/><path d="M435.208 231.703c-5.743 2.212-37.57-.024-50.359-.073-2.188 0-9.982-.377-13.806 1.037-5.543 2.074-11.887 5.993-15.208 6.242-4.369.346-11.355-9.201-10.958-10.953.655-2.914 5.522-4.635 8.798-5.471 1.725-.439 1.622-.45-.087-.284-3.261.318-7.717.55-6.019-.784 3.01-2.364 12.85-1.528 15.984-.754 3.293.816 9.457 3.267 13.807 2.859 17.699-1.652 35.606-7.95 44.442-8.835 5.347-.539 13.051 1.791 16.199 5.257 1.905 2.085 6.599 8.14-2.793 11.759z" fill="#FFBDA6"/><path d="M438.787 225.412c-8.605 6.249-23.888 6.041-40.187 4.839-10.793-.795-24.199-.923-27.613.836-3.044 1.569-6.212 3.287-6.42 4.182-.207.895 5.05-2.212 7.594-2.765 3.742-.805 9.364-.753 13.164-.667 8.709.19 17.438.723 26.132 1.196 6.358.346 12.934 1.12 19.278.256 2.661-.346 6.482-1.269 8.725-3.595 2.154-2.208 2.786-6.802-.673-4.282z" fill="#FC9F86"/><path d="M247.31 198.329c-4.021-6.039-10.009-37.729-13.685-49.425-.663-2.109-3.017-11.251-5.543-14.517-3.673-4.732-9.413-8.578-10.624-11.724-1.347-3.487-3.362-18.474-1.164-19.531 1.412-.691 2.907 7.911 4.191 12.01.576 1.839 1.774 2.935 3.22 4.01 1.726 1.292 3.652 2.592 4.97 3.456.953.64 2.848 1.096 2.206-.207-.759-1.535-3.331-4.642-3.766-5.938-.473-1.417-.438-3.657.439-2.765 1.38 1.427 5.267 5.184 7.155 8.018 1.215 1.829 1.584 5.306 1.833 6.294 1.035 4.079.051 6.391 1.832 10.442 7.373 16.759 20.382 36.982 25.511 47.292 2.554 5.129 3.918 14.728-1.57 19.542-3.052 2.731-10.666-.446-15.005-6.957z" fill="#FFBDA6"/><path d="M377.084 127.702l-1.861-.491a5.503 5.503 0 01-4.193-5.305c-.083-11.378-.121-28.473-.121-28.473-1.008 5.903-8.377 10.217-17.089 9.774a24.304 24.304 0 01-2.382-.252l-.973 19.355a4.413 4.413 0 01-3.686 4.12c-.819.138-1.625.287-2.416.446a4.37 4.37 0 00-.239 1.265c-.245 4.839 6.652 9.149 15.402 9.591 8.749.443 18.735-3.19 17.558-10.03z" fill="#FC9F86"/><path d="M371.72 91.709c-3.638 13.97-10.072 17.627-16.222 17.319-6.451-.345-10.217-3.345-11.487-16.956-1.381-14.648.031-20.047 8.56-22.753 3.617-1.148 12.688-.82 16.647 3.567 3.469 3.857 3.879 13.538 2.502 18.823z" fill="#FFBDA6"/><path d="M346.396 142.25l7.662-5.972c-5.916-2.306-9.319-5.292-8.391-9.332.346-1.435 1.167-1.67.843-2.119-.435-.605-2.337-.031-3.266 1.493-1.035 1.683-1.38 4.251-1.287 6.135.19 3.595 2.137 7.016 4.439 9.795zm31.709-14.281c-.507-2.368-1.881-.909-2.071-.111-1.864 7.352-12.312 9.581-17.444 9.073a7.95 7.95 0 00-1.253-.048l5.702 8.547c7.379-1.745 16.975-8.499 15.066-17.461z" fill="#fff"/><path d="M370.902 93.433c-1.008 5.907-8.377 10.217-17.089 9.774a23.98 23.98 0 01-2.374-.252l-.905 17.942a11.256 11.256 0 004.311 1.69c7.804 1.151 13.606-4.265 16.109-11.247-.021-9.114-.052-17.841-.052-17.907z" fill="#CB7057"/><path d="M367.902 79.287c-1.554-3.536-5.092-4.957-8.63-5.741-3.451-.76-8.049-1.013-11.462.242-1.295.473-2.686 1.33-3.411 2.502-1.035 1.649-.969 3.664-.918 5.61 0 .653-.024.978.67.656 4.304-1.98 10.044-.69 14.152 1.245 3.396 1.617 5.922 4.645 9.45 5.941.763.28 1.353-.097 1.429-.836.307-3.035-.117-6.968-1.28-9.62z" fill="#FC9F86"/><path d="M372.024 79.411c-1.916-1.932-4.929-3.228-7.718-3.764 4.194 4.051 3.848 12.688 3.313 15.554-.189 1.037-3.796 5.45-8.335 5.222-2.071-.103-4.09-1.807-6.807-1.942-2.502-.128-3.451 1.096-5.384.995-2.903-.145-2.658-4.973-3.252-5.184-1.308-.505-3.013 2.336-4.418 7.113-2.972 10.103 2.006 21.775 10.01 22.196 7.732.391 12.698-2.364 16.447-6.646 4.528-5.185 5.243-12.643 4.311-19.563 2.109-1.576 3.769-3.712 4.335-4.984a37.572 37.572 0 001.277-3.156c.49-1.403-2.14-4.178-3.779-5.84z" fill="#1E2859"/><path d="M358.231 100.142c-.02.391-2.271 1.268-4.987 1.13-2.717-.138-4.864-1.382-4.833-1.911.018-.346 2.206 0 4.922.145 2.717.145 4.922.176 4.898.636z" fill="#fff"/><path d="M346.79 87.83a.244.244 0 000-.093.248.248 0 00-.038-.086v-.028c-.497-.48-.622-1.365-.252-1.79v-.024a.205.205 0 00.031-.09.198.198 0 000-.097v-.024c0-.024-.031-.041-.045-.066-.014-.024 0-.048-.035-.065h-.02a.27.27 0 00-.1-.035.395.395 0 00-.087 0h-.027a1.27 1.27 0 00-.918 1.296 1.379 1.379 0 001.197 1.355h.052a.24.24 0 00.169-.076s0-.035.017-.048a.147.147 0 00.049-.08c.007-.034.007-.028.007-.048zm13.318.837a.229.229 0 00-.017-.093.186.186 0 00-.038-.086v-.028c-.5-.48-.625-1.382-.255-1.79v-.025a.206.206 0 00.031-.09.198.198 0 000-.096v-.024c0-.025-.031-.042-.049-.066-.017-.024 0-.048-.031-.066h-.02a.219.219 0 00-.104-.034.236.236 0 00-.083 0h-.027a1.266 1.266 0 00-.918 1.296 1.379 1.379 0 001.197 1.355h.055a.254.254 0 00.173-.076s0-.035.017-.049a.146.146 0 00.049-.08c.006-.034.02-.034.02-.048zm5.931-3.687c-3.372-2.313-7.745-2.672-10.89-.896-.139.233-.181.51-.117.774a.26.26 0 00.345.097 10 10 0 0110.355.45c.042.03.093.045.145.044a.257.257 0 00.145-.47h.017z" fill="#1E2859"/><path d="M352.308 94.505c-1.108-.166-2.371-.536-2.685-.996a.273.273 0 01-.059-.228c.159-.73.345-1.452.532-2.215a55.256 55.256 0 001.035-4.697c.187-1.082-.045-2.42-1.246-2.81.018-.021.045-.035.052-.066a.265.265 0 00.007-.101.271.271 0 00-.099-.172.258.258 0 00-.091-.045c-3.213-.847-5.588 0-6.482.633-.017 0-.021.037-.034.051a.246.246 0 00-.049.083.165.165 0 000 .094v.062c0 .02.021 0 .028.03.007.032 0 .028 0 .042 0 .014.031 0 .045.025a.228.228 0 00.12.062s.028.024.045.024h.076a12.696 12.696 0 016.12-.26c1.305.298 1.035 2.075 1.004 2.272a55.06 55.06 0 01-1.035 4.662c-.193.767-.376 1.493-.535 2.233a.8.8 0 00.135.632c.545.785 2.46 1.124 3.037 1.21h.038a.259.259 0 00.038-.515l.003-.01z" fill="#1E2859"/><path d="M364.821 58.128c-4.505-1.594-9.879-1.124-14.248.809-5.067 2.243-8.381 8.595-9.289 12.442-.134.56-.293 1.134.346 1.037 12.594-2.291 26.86 3.27 33.452 13.424.691 1.037 1.236-.345 1.467-.85 4.484-9.58-.293-22.811-11.728-26.862z" fill="#20BD71"/><path d="M368.644 78.063c-.324-1.99-2.975-6.82-10.962-9.968-3.054-1.206-8.021-4.251-11.273-5.568-1.556-.626-6.026-1.434-6.126.297-.049.84 3.355 1.611 5.93 3.17 3.106 1.873 4.141 4.06 6.723 5.42a53.131 53.131 0 007.777 3.11c2.416.802 5.502 2.34 6.882 3.397.494.398 1.105.48 1.049.142z" fill="#fff"/><path d="M368.389 78.063c-4.487-2.862-11.466-5.368-16.34-11.358-4.666-5.737-11.797-6.18-16.34-3.159-2.039 1.352-4.939 4.552-3.997 8.012.843 3.09 6.279 5.274 9.185 5.858 2.264.457 2.789.308 3.297-.37.849-1.14 1.663-2.457 4.487-3.193 4.059-1.037 10.182.232 13.934 1.749a50.347 50.347 0 015.16 2.765c.752.446 1.249.124.614-.304z" fill="#1C8753"/><path d="M375.853 89.424c-.577 3.11-3.169 6.08-4.636 5.53-1.187-.453-1.135-2.634-.907-5.8.214-2.99.738-5.72 2.55-5.627 1.812.094 3.683 2.143 2.993 5.897z" fill="#FC9F86"/><path d="M287.191 182.668c-2.223 2.765-8.325 1.452-14.152-2.395-5.826-3.847-6.692-7.663-3.372-11.99 3.797-4.963 7.449-3.733 12.174.909 4.981 4.905 7.569 10.728 5.35 13.476z" fill="#1E2859"/><path d="M287.424 173.619c-.966 4.117.739 5.472.094 5.741-.787.325-2.182-1.282-1.895-6.978.286-5.696 2.326-8.834 4.142-7.296 2.184 1.849-1.188 3.618-2.341 8.533zM124.9 56.924l-2.97 6.114 1.974.961 2.97-6.113-1.974-.962zm72.463 41.096l-4.073 6.876 2.137 1.27 4.073-6.876-2.137-1.27zm162.988 139.489a854.898 854.898 0 016.406 7.317l3.324-2.889a841.716 841.716 0 00-5.616-6.339c-1.439.688-2.83 1.355-4.114 1.911z" fill="#1E2859"/><path d="M214.903 107.435l.418.277c.003 1.151.068 2.437.151 3.767-.752-.501-1.501-1.016-2.257-1.517-5.215-3.387-10.372-6.861-15.653-10.148-20.988-13.383-23.02-15.793-45.062-27.314-33-16.5-41-20-71-31l.545-1.614C110.5 49.5 119.5 52.69 153.663 70.29c22.201 11.438 24.37 13.767 45.473 27.07 5.315 3.259 10.514 6.711 15.767 10.074zm103.255 80.483a695.365 695.365 0 00-57.297-48.232l-7.486-5.62-7.594-5.482-3.797-2.741-3.841-2.675-7.687-5.34a1604.608 1604.608 0 00-11.276-7.556c.404 1.615.794 3.208 1.17 4.494 2.782 1.882 5.557 3.774 8.325 5.675l7.621 5.371 3.797 2.692 3.762 2.765 7.521 5.506 7.414 5.648a690.754 690.754 0 0156.675 48.364 699.612 699.612 0 0133.001 33.602 24.384 24.384 0 014.26-1.611c-11.135-12.007-22.636-23.658-34.568-34.86z" fill="#1E2859"/><path d="M222 320h-16v160h16V320zm203 0h-15v160h15V320z" fill="#20BD71"/><path d="M83.5 41.5v438" stroke="#000"/></g><defs><linearGradient id="paint0_linear" x1="33.59" y1="480.315" x2="53.156" y2="-19.728" gradientUnits="userSpaceOnUse"><stop stop-color="#16A05D"/><stop offset="1" stop-color="#20BD71"/></linearGradient><linearGradient id="paint1_linear" x1="321.792" y1="151.835" x2="382.511" y2="240.28" gradientUnits="userSpaceOnUse"><stop stop-color="#15CF74"/><stop offset="1" stop-color="#1C8753"/></linearGradient><linearGradient id="paint2_linear" x1="368.731" y1="164.87" x2="380.422" y2="255.783" gradientUnits="userSpaceOnUse"><stop stop-color="#25925D"/><stop offset=".99" stop-color="#13613B"/></linearGradient><linearGradient id="paint3_linear" x1="-238922" y1="104937" x2="-213471" y2="124616" gradientUnits="userSpaceOnUse"><stop stop-color="#2DA771"/><stop offset="1" stop-color="#1C8753"/></linearGradient><clipPath id="clip0"><path fill="#fff" d="M0 0h600v480H0z"/></clipPath></defs></svg>