<svg width="72" height="72" fill="none" xmlns="http://www.w3.org/2000/svg"><rect width="72" height="72" rx="8" fill="#24FF8A" fill-opacity=".25"/><path opacity=".3" d="M52 24h-8.1l-3.66-4h-8.48l-3.66 4H20v24h32V24zM36 46c-5.52 0-10-4.48-10-10s4.48-10 10-10 10 4.48 10 10-4.48 10-10 10z" fill="#1C8753"/><path d="M20 52h32c2.2 0 4-1.8 4-4V24c0-2.2-1.8-4-4-4h-6.34L42 16H30l-3.66 4H20c-2.2 0-4 1.8-4 4v24c0 2.2 1.8 4 4 4zm0-28h8.1l3.66-4h8.48l3.66 4H52v24H20V24zm16 2c-5.52 0-10 4.48-10 10s4.48 10 10 10 10-4.48 10-10-4.48-10-10-10zm0 16c-3.3 0-6-2.7-6-6s2.7-6 6-6 6 2.7 6 6-2.7 6-6 6z" fill="#1C8753"/></svg>