<svg width="73" height="72" fill="none" xmlns="http://www.w3.org/2000/svg"><rect x=".5" width="72" height="72" rx="8" fill="#24FF8A" fill-opacity=".25"/><path opacity=".3" d="M36.5 18.38l-14 6.22V34c0 9.04 5.96 17.38 14 19.86 8.04-2.46 14-10.82 14-19.86v-9.4l-14-6.22zm2 27.62h-4V34h4v12zm0-16h-4v-4h4v4z" fill="#1C8753"/><path d="M36.5 18.38l14 6.22V34c0 9.04-5.96 17.38-14 19.86-8.04-2.48-14-10.82-14-19.86v-9.4l14-6.22zm.406-4.2a1 1 0 00-.812 0l-17 7.556a1 1 0 00-.594.914V34c0 11.015 7.563 21.32 17.763 23.94.155.04.319.04.474 0C46.937 55.32 54.5 45.016 54.5 34V22.65a1 1 0 00-.594-.914l-17-7.556zM34.5 26h4v4h-4v-4zm0 8h4v12h-4V34z" fill="#1C8753"/></svg>