<svg width="32" height="32" fill="none" xmlns="http://www.w3.org/2000/svg"><path fill-rule="evenodd" clip-rule="evenodd" d="M26.666 24c0 .736-.597 1.333-1.333 1.333H6.667A1.334 1.334 0 015.332 24V8c0-.736.598-1.333 1.333-1.333h18.667c.736 0 1.334.597 1.334 1.333v16zM5.334 4a2.667 2.667 0 00-2.667 2.667v18.666A2.668 2.668 0 005.333 28h21.334a2.667 2.667 0 002.666-2.667V6.667A2.666 2.666 0 0026.667 4H5.332z" fill="#1C8753"/><path fill-rule="evenodd" clip-rule="evenodd" d="M13.936 12.799l-4.238 7.534H22.37l-2.506-5.011-1.583 2.375a1.133 1.133 0 01-1.957-.122l-2.388-4.776zm-1.435-1.528c.655-1.165 2.346-1.123 2.943.072l2.001 4.002 1.074-1.61a1.667 1.667 0 012.877.179L24.4 19.92a1.667 1.667 0 01-1.49 2.412H9.127a1.667 1.667 0 01-1.453-2.483L12.5 11.27z" fill="#1C8753"/><path d="M21.322 10.667a1.333 1.333 0 11-2.667 0 1.333 1.333 0 012.666 0z" fill="#1C8753"/><path opacity=".3" fill-rule="evenodd" clip-rule="evenodd" d="M25.334 25.333c.736 0 1.333-.597 1.333-1.333V8c0-.736-.598-1.333-1.334-1.333H6.668c-.736 0-1.333.597-1.333 1.333v16c0 .736.597 1.333 1.333 1.333h18.666zM19.988 12a1.333 1.333 0 100-2.667 1.333 1.333 0 000 2.667z" fill="#1C8753"/></svg>